<svg xmlns="http://www.w3.org/2000/svg" viewBox="0 0 400 400" fill="none" shape-rendering="auto" width="512" height="512"><desc>"Adventurer Neutral" by "Lisa Wischofsky", licensed under "CC BY 4.0". / Remix of the original. - Created with dicebear.com</desc><metadata xmlns:dc="http://purl.org/dc/elements/1.1/" xmlns:cc="http://creativecommons.org/ns#" xmlns:rdf="http://www.w3.org/1999/02/22-rdf-syntax-ns#"><rdf:RDF><cc:Work><dc:title>Adventurer Neutral</dc:title><dc:creator><cc:Agent rdf:about="https://www.instagram.com/lischi_art/"><dc:title>Lisa Wischofsky</dc:title></cc:Agent></dc:creator><dc:source>https://www.figma.com/community/file/1184595184137881796</dc:source><cc:license rdf:resource="https://creativecommons.org/licenses/by/4.0/" /></cc:Work></rdf:RDF></metadata><mask id="viewboxMask"><rect width="400" height="400" rx="0" ry="0" x="0" y="0" fill="#fff" /></mask><g mask="url(#viewboxMask)"><rect fill="#ffdfbf" width="400" height="400" x="0" y="0" /><g transform="translate(-279 -322)"><path d="M574.47 426.48c13.52 3.69 25.28 11.87 34.03 22.75 7.5-5.17 14.74-10.73 22.37-15.71l3.07 1.28c-.34 2.1-.24 3.64-2.24 4.9-6.6 4.8-13.31 9.45-19.92 14.23 3.77 6.35 7.07 12.73 8.56 20.03 1.59 7.69 2.58 16.11 1.14 23.88-.44 2.76-3.06 3.5-5.47 3.7-19.7 1.03-39.42 3.02-59 5.35-11.08 1.45-22.17 1.92-33.23 3.57-4.5.68-9.03 1.18-13.54 1.79-5 .7-9.54 1.77-14.54.33-4.84-13.86-5.54-28.92-1.07-42.97a65.16 65.16 0 0 1 28.7-36.27c15.07-9.25 34.17-11.67 51.14-6.87Z" fill="#000"/><path d="M565.47 430.38a59.78 59.78 0 0 1 42.62 28.54c6.6 11.12 9.16 23.82 8.14 36.67-4.76.39-9.48.96-14.25 1.17-18 1.19-35.9 3.32-53.81 5.48 1.05-2.96 2.25-6.07 2.52-9.2.8-9.38-4.1-18.83-12.31-23.45-5.3-3.21-11.43-3.75-17.45-2.72-11.6 2.17-20.3 13.34-19.52 25.13.01 6.06 2.65 11.12 6.33 15.74l-7.3.74a59.26 59.26 0 0 1 1.6-42.39 59.24 59.24 0 0 1 33.74-32.46c9.48-3.74 19.65-4.48 29.7-3.26Z" fill="#fff"/><path d="M416.52 455.44a55 55 0 0 1 24.5 36.47 57.74 57.74 0 0 1-1.23 25.16c-5.34 1.1-10.4.57-15.8.57-24.03-.24-48-.16-72 1.46-5.86-.14-12.62 1.57-17.83-1.24-.94-4.53-2.07-9.19-2.27-13.82-.34-10.1 2.17-19.99 6.82-28.94-6-3.98-12.33-7.55-18.2-11.72-1.9-1.41-1.7-2.69-.83-4.69 2.76-1.07 4.5.5 6.78 1.81 5.07 3.31 10.17 6.56 15.27 9.82a55.77 55.77 0 0 1 31.73-21.84 55.28 55.28 0 0 1 43.05 6.97Z" fill="#000"/><path d="M400.8 454.53a49.36 49.36 0 0 1 29.24 23.44 48.95 48.95 0 0 1 5.07 34.42l-5.61.12c2.13-4.63 3.58-9.36 2.88-14.52-.9-8.64-7.3-16.11-15.55-18.64a23.51 23.51 0 0 0-11.81-.2c-9.02 2.14-16.25 10.53-16.65 19.85-.47 4.7.89 8.93 2.74 13.17-13.38.11-26.76.61-40.1 1.61-3.69.2-7.9.7-11.5-.24-1.65-3.05-1.64-7.15-1.79-10.54-.55-13.95 5.57-28 15.83-37.42 12.47-11.6 30.9-16 47.25-11.05Z" fill="#fff"/></g><g transform="translate(-279 -322)"><path d="M530.99 353.9c17.06 1.95 34 7.42 48.62 16.5 6.84 4.33 13.98 9.93 18.27 16.9.9 1.17 1.25 3.53-.22 4.34-1.19 1.18-2.85.5-4.15-.1-16.36-8.83-35.52-13.28-53.92-15.02-13.52-.79-28.3-.86-41.16 3.86-2.92 1.03-5.5 2.98-8.47 3.85-1.37.25-2.43-1.11-2.88-2.26-1.81-4.7-2.23-10.24.18-14.8 2.6-5.35 7.91-8.65 13.31-10.66 9.68-3.6 20.27-3.32 30.42-2.61ZM414.04 408.09c8.18 2.36 14.6 10.77 13.54 19.42-1.87.56-3.6 1-5.58.73-14.22-1.45-29.3 1.52-42.82 5.85-14.05 4.67-28.5 11.6-39.42 21.77-1.34 1.3-4.25 2.95-5.5.75-1.73-2.36.02-4.07 1.38-5.97 12.84-16.22 29.69-30.97 48.9-39.03 8.9-3.65 20.04-6.5 29.5-3.53Z" fill="#000"/></g><g transform="translate(-279 -322)"><path d="M473 557.77c14.54-.55 30.84 1.36 43.71 8.62-20.68 8.7-43.2 14.72-65.7 15.48-7.24 0-14.34.28-21.54-.61.7-5.83 3.1-9.58 7.73-13.05 9.92-7.31 23.76-9.76 35.8-10.44Z" fill="#D31E1E"/><path d="M525.03 563.67c.41.78.8 1.57 1.14 2.37.47 2.66-1.95 3.31-3.8 4.34-4 1.77-8.06 3.4-12.13 4.98-17.66 6.32-35.39 11.11-54.24 11.94-6.5.5-12.94.62-19.44.04-4.9-.57-10.15-.63-14.87-2.03-2.35-.88-2.73-3.93-.4-5.07 2.68-.12 5.48.83 8.18 1.02 7.2.89 14.3.61 21.54.61 22.5-.76 45.02-6.79 65.7-15.48 2.76-1.19 5.22-2.6 8.32-2.72Z" fill="#000"/><path d="M510.24 575.36c-1.96 10.16-10.37 17.27-19.22 21.68a56.41 56.41 0 0 1-34 4.71c-8.7-1.77-16.5-6.13-20.46-14.4 6.5.57 12.94.45 19.44-.05 18.85-.83 36.58-5.62 54.24-11.94Z" fill="#D31E1E"/></g><g transform="translate(-279 -322)"></g></g></svg>