<svg xmlns="http://www.w3.org/2000/svg" viewBox="0 0 400 400" fill="none" shape-rendering="auto" width="512" height="512"><desc>"Adventurer Neutral" by "Lisa Wischofsky", licensed under "CC BY 4.0". / Remix of the original. - Created with dicebear.com</desc><metadata xmlns:dc="http://purl.org/dc/elements/1.1/" xmlns:cc="http://creativecommons.org/ns#" xmlns:rdf="http://www.w3.org/1999/02/22-rdf-syntax-ns#"><rdf:RDF><cc:Work><dc:title>Adventurer Neutral</dc:title><dc:creator><cc:Agent rdf:about="https://www.instagram.com/lischi_art/"><dc:title>Lisa Wischofsky</dc:title></cc:Agent></dc:creator><dc:source>https://www.figma.com/community/file/1184595184137881796</dc:source><cc:license rdf:resource="https://creativecommons.org/licenses/by/4.0/" /></cc:Work></rdf:RDF></metadata><mask id="viewboxMask"><rect width="400" height="400" rx="0" ry="0" x="0" y="0" fill="#fff" /></mask><g mask="url(#viewboxMask)"><rect fill="#f2d3b1" width="400" height="400" x="0" y="0" /><g transform="translate(-279 -322)"><path d="M494.83 474.61c2.5.17 5.02 1.39 7.38 2.24 9.33 3.65 18.8 6.05 28.52 8.37 20.93 5.06 42.75 8.76 64.32 6.83a372.7 372.7 0 0 0 22-3.8c2.52-.69 5.44.75 5.16 3.64-.55 6.56-1.62 13.23-3.9 19.44a65.49 65.49 0 0 1-29.88 35.11 64.13 64.13 0 0 1-32.42 8.09c-17.65-.05-34.84-7.8-46.86-20.68-7.23-7.66-11.98-16.88-15.38-26.78 1.24 7.98 2.5 15.76 6.26 23.03 3.03 6 7.26 10.92 11.61 16-1.15 1.32-2.54 3.25-4.48 1.97-3.6-2.64-6.29-6.76-8.86-10.36-6.2-8.96-8.75-19.54-10-30.22-1-7.27.07-15.03 1.27-22.23.76-3.53 1.94-8.67 5.27-10.65ZM436.11 479.84c2.2.74 3.17 3.02 4.14 4.93 5.57 12.06 7.7 26.28 4.75 39.31-1.56 8.46-5.54 17.15-12.02 22.96-1.6 1.63-3.44 1.53-5.55 1.47a14.54 14.54 0 0 1-.05-3.16c2.13-2.57 4.8-4.5 6.55-7.43 5.1-7.77 6.2-16.2 7.05-25.25-2.4 10.15-6.94 19.55-14.24 27.08a54.72 54.72 0 0 1-31.5 16.39 54.98 54.98 0 0 1-40.6-9.82 55.32 55.32 0 0 1-19.69-26.46c-.62-1.89-1.23-4.36-.54-6.29 1.61-1.44 3.53-1.87 5.62-2.03 8.8-.6 17.33-2.62 26.08-4.44 7.47-1.54 14.64-3.9 21.94-6.06 9.57-3.12 18.95-7.7 28.15-11.8 5.2-2.33 10.2-5.07 15.18-7.86 1.4-.7 3.12-1.76 4.74-1.54Z" fill="#000"/><path d="M497.89 481.07c4.93 1.84 9.74 3.81 14.84 5.15 13.85 3.68 28.08 7.8 42.3 9.62 2.57.4 5.13.95 7.7 1.46.65 7.27 3.79 13.87 9.83 18.14 9.45 6.94 23.73 5.49 31.27-3.61 4.15-4.66 5.55-10.31 5.95-16.4l6.5-1.1c-1.89 21.43-15.6 41.02-35.47 49.48a58.92 58.92 0 0 1-38.05 3.38 59.69 59.69 0 0 1-36.88-27.07c-6.4-10.7-9.56-23.58-8.4-36.02.12-1.01.26-2.02.4-3.03ZM433.78 486.25c2.2 7.46 3.34 15.04 1.9 22.78a49.42 49.42 0 0 1-17.13 30.52 50.1 50.1 0 0 1-32.57 11.61 50.55 50.55 0 0 1-27.2-8.94A50.26 50.26 0 0 1 340.01 517c14.82-1.83 29.68-4.5 44-8.81 2.74 9.7 10.66 17.13 20.9 17.95 10.2 1.12 20.02-4.88 24-14.24a24.5 24.5 0 0 0-1.86-22.3c2.23-1.14 4.46-2.34 6.74-3.35Z" fill="#fff"/></g><g transform="translate(-279 -322)"><path d="M582.3 370.69c14.06 7.04 27.75 17.35 36.57 30.53a2.98 2.98 0 0 1-4.23 4.15 100.16 100.16 0 0 0-34.46-13.42c-35.66-6.86-74.47 5.14-98.23 33.03-1.67 2.05-4.03 3.59-6.28 1.25-1.68-2.6-2.27-6.05-3.3-8.95-1.92 4.71-3.86 9.5-6.2 14.02-1.56 3.23-6 1.12-7.04-1.42-3.06-6.88-6.2-13.74-9.02-20.73 0 5.63 0 11.25.04 16.88-.19 2.06.27 4.35-2.1 5.22a5.55 5.55 0 0 1-5.31-2.91c-3.26-5.88-6.24-11.93-9.5-17.82.97 5.5 2.61 11 3.11 16.55.12 1.94-2.28 3.44-4.02 2.36-18.54-7.4-38.31-11.5-58.33-10.1-12.5.93-26.14 4.64-36 12.69-3.09 2.34-5.2 5.5-7.97 8.15-1.65.72-3.27-.24-4.88-.65.08-1.9.11-3.75.73-5.58 6.86-20.67 20.43-39.8 39.98-50.1 13.56-7.32 30.17-9.03 44.62-3.35 11.89 4.55 20.95 13.32 27.67 23.95 2.31-2.84 4.25-6.03 6.75-8.7 1.62-1.57 4.62-1.56 5.63.7 2.52 5.16 4.68 10.52 6.98 15.8 1.5-7.43 3.06-14.82 4.43-22.25.33-1.5.6-3.23 1.58-4.45 1.65-1.25 2.9-.28 4.65.1l.8 2.56c2.08-4.75 4.75-9.11 8.44-12.78 9.1-9.43 21.82-14.25 34.5-16.48 23.85-3.69 48.86 1.12 70.39 11.75Z" fill="#000"/></g><g transform="translate(-279 -322)"><path d="M525.03 563.67c.41.78.8 1.57 1.14 2.37.47 2.66-1.95 3.31-3.8 4.34-4 1.77-8.06 3.4-12.13 4.98-17.66 6.32-35.39 11.11-54.24 11.94-6.5.5-12.94.62-19.44.04-4.9-.57-10.15-.63-14.87-2.03-2.35-.88-2.73-3.93-.4-5.07 2.68-.12 5.48.83 8.18 1.02 7.2.89 14.3.61 21.54.61 22.5-.76 45.02-6.79 65.7-15.48 2.76-1.19 5.22-2.6 8.32-2.72Z" fill="#000"/></g><g transform="translate(-279 -322)"></g></g></svg>