<svg xmlns="http://www.w3.org/2000/svg" viewBox="0 0 400 400" fill="none" shape-rendering="auto" width="512" height="512"><desc>"Adventurer Neutral" by "Lisa Wischofsky", licensed under "CC BY 4.0". / Remix of the original. - Created with dicebear.com</desc><metadata xmlns:dc="http://purl.org/dc/elements/1.1/" xmlns:cc="http://creativecommons.org/ns#" xmlns:rdf="http://www.w3.org/1999/02/22-rdf-syntax-ns#"><rdf:RDF><cc:Work><dc:title>Adventurer Neutral</dc:title><dc:creator><cc:Agent rdf:about="https://www.instagram.com/lischi_art/"><dc:title>Lisa Wischofsky</dc:title></cc:Agent></dc:creator><dc:source>https://www.figma.com/community/file/1184595184137881796</dc:source><cc:license rdf:resource="https://creativecommons.org/licenses/by/4.0/" /></cc:Work></rdf:RDF></metadata><mask id="viewboxMask"><rect width="400" height="400" rx="0" ry="0" x="0" y="0" fill="#fff" /></mask><g mask="url(#viewboxMask)"><rect fill="#ffdfbf" width="400" height="400" x="0" y="0" /><g transform="translate(-279 -322)"><path d="M554.99 424.09a65.3 65.3 0 0 1 43.19 14.7c9.2 7.44 16.2 17.65 20.32 28.7 2.1 5.57 2.58 11.14 3.64 16.93-1.32 1.48-1.69 3.34-4.05 3.02-7.04-.31-13.96-2.04-21.03-2.22-8.77-.1-17.38-.37-26.1.95-9.83 1.63-19.5 2.64-29.06 5.72a175.1 175.1 0 0 0-32.49 12.44c-3.35 1.62-6.46 3.76-9.88 5.22-2.08.77-4.42.35-5.29-1.92-2.28-7.19-2.82-15.19-2.45-22.69.94-16 8.12-31.4 19.67-42.5a65.08 65.08 0 0 1 43.54-18.36Z" fill="#000"/><path d="M557 429.85c15.33-.23 30.4 6.15 41.39 16.75 9.87 9.5 15.83 22.19 17.7 35.7-14.9-2.86-30-3.76-45.12-2.5-6 .7-11.93 1.88-17.87 2.89-.9-3.26-1.74-6.35-3.55-9.25-5.97-9.96-19.33-15.24-30.34-11.14a25.88 25.88 0 0 0-15.95 14.9c-3.08 7.38-2.28 15.5 1.22 22.6l-5.74 2.9c-5.12-21.7 3.1-45.52 20.44-59.52 10.54-8.6 24.2-13.57 37.83-13.33Z" fill="#fff"/><path d="M411.45 452.57a55 55 0 0 1 27.77 32.17c3.17 9.5 3.14 19.25 1.59 29.04l-2.88 1.57a151.25 151.25 0 0 0-29.91-5.44c-17.9-1.13-36.17-1.69-54.05.02-6.9.17-13.47 2.03-20.42 1.58-.89-2.44-1.7-4.84-1.7-7.47-.18-10.31 2.22-20.81 7.45-29.76a55.03 55.03 0 0 1 72.15-21.7Z" fill="#000"/><path d="M397.24 453.61a49.57 49.57 0 0 1 27.52 16.64 49.91 49.91 0 0 1 11.07 38.62 83.07 83.07 0 0 0-12.33-3.02 232.53 232.53 0 0 0-37.65-2.38c-.06-3.82.07-7.4-1.47-10.98a23.17 23.17 0 0 0-18.35-14.5c-10.08-1.52-20.42 4.34-24.35 13.74-2.23 4.9-1.78 9.64-1.96 14.85-1.73-1.26-1.94-1.37-2-3.52-.53-12.06 4.07-24.34 11.93-33.45 11.5-13.5 30.27-19.84 47.6-16Z" fill="#fff"/></g><g transform="translate(-279 -322)"><path d="M530.99 353.9c17.06 1.95 34 7.42 48.62 16.5 6.84 4.33 13.98 9.93 18.27 16.9.9 1.17 1.25 3.53-.22 4.34-1.19 1.18-2.85.5-4.15-.1-16.36-8.83-35.52-13.28-53.92-15.02-13.52-.79-28.3-.86-41.16 3.86-2.92 1.03-5.5 2.98-8.47 3.85-1.37.25-2.43-1.11-2.88-2.26-1.81-4.7-2.23-10.24.18-14.8 2.6-5.35 7.91-8.65 13.31-10.66 9.68-3.6 20.27-3.32 30.42-2.61ZM414.04 408.09c8.18 2.36 14.6 10.77 13.54 19.42-1.87.56-3.6 1-5.58.73-14.22-1.45-29.3 1.52-42.82 5.85-14.05 4.67-28.5 11.6-39.42 21.77-1.34 1.3-4.25 2.95-5.5.75-1.73-2.36.02-4.07 1.38-5.97 12.84-16.22 29.69-30.97 48.9-39.03 8.9-3.65 20.04-6.5 29.5-3.53Z" fill="#000"/></g><g transform="translate(-279 -322)"><path d="M524.2 555.79c.5 6.88-.8 13.42-1.56 20.21a245.12 245.12 0 0 1-19.15 70.23c-3.65 7.33-6.74 15.74-13.95 20.34-4.25 3.06-10.3 1.77-14.6-.52-9.5-4.69-15.15-12.28-21.77-20.2-10.97-13.4-18.85-28.33-26.05-44-3.56-8.2-6.83-16.5-10.25-24.75-.87-2.13-1.17-4.1 1.07-5.43 4.72 0 9.31 1.5 14.06 1.5 9.3.25 18.74.41 27.98-.8 19.98-2.3 39.64-8.31 58-16.45 2.12-1.07 4.02-.6 6.22-.13Z" fill="#000"/><path d="M518.93 561.99c-1.93 15.16-3.98 30.2-8 44.98-4.7 16.77-10.28 33.84-19.06 48.96-2.17 3.44-5.3 7.34-9.89 6.51-7.43-1.55-14.07-8-18.68-13.73-9.88-10.97-17.89-23.26-24.61-36.38-6.13-11.12-10.64-22.89-15.69-34.52 4.8.44 9.6.8 14.4 1.2 1.13 5.94 4.6 11.5 8.45 16.07 5.08 5.94 12.23 9.8 20.13 9.97a27.87 27.87 0 0 0 16.68-7.36c8.02-7.35 11.96-17.07 14.48-27.43a265.03 265.03 0 0 0 21.79-8.27Z" fill="#8F2E45"/><path d="M490.65 572.12c-2.55 8.79-7.09 18.39-14.95 23.6-5.47 3.76-12.7 4.38-18.57 1.11-7-3.86-10.9-10.5-13.93-17.65 16.1-.33 32-2.32 47.45-7.06Z" fill="#fff"/></g><g transform="translate(-279 -322)"></g></g></svg>