<svg xmlns="http://www.w3.org/2000/svg" viewBox="0 0 400 400" fill="none" shape-rendering="auto" width="512" height="512"><desc>"Adventurer Neutral" by "Lisa Wischofsky", licensed under "CC BY 4.0". / Remix of the original. - Created with dicebear.com</desc><metadata xmlns:dc="http://purl.org/dc/elements/1.1/" xmlns:cc="http://creativecommons.org/ns#" xmlns:rdf="http://www.w3.org/1999/02/22-rdf-syntax-ns#"><rdf:RDF><cc:Work><dc:title>Adventurer Neutral</dc:title><dc:creator><cc:Agent rdf:about="https://www.instagram.com/lischi_art/"><dc:title>Lisa Wischofsky</dc:title></cc:Agent></dc:creator><dc:source>https://www.figma.com/community/file/1184595184137881796</dc:source><cc:license rdf:resource="https://creativecommons.org/licenses/by/4.0/" /></cc:Work></rdf:RDF></metadata><mask id="viewboxMask"><rect width="400" height="400" rx="0" ry="0" x="0" y="0" fill="#fff" /></mask><g mask="url(#viewboxMask)"><rect fill="#ffdfbf" width="400" height="400" x="0" y="0" /><g transform="translate(-279 -322)"><path d="M617.23 468.82c1.16 1.34 2.37 2.36 2.84 4.14a65.5 65.5 0 0 1-7.98 51.11 65.74 65.74 0 0 1-34.83 27.28 65.88 65.88 0 0 1-36.24 1.27 65.18 65.18 0 0 1-40.77-30.86c-7.18-12.23-9.85-26.73-8.06-40.75.53-3.4 1.75-7.26 5.57-8.09 8.61-1.53 17.56-1.34 26.27-2.27 24.31-1.49 48.65-2.37 73-2.08 6.76-.37 13.46.4 20.2.25Z" fill="#000"/><path d="m607.09 474.28 7.45.37c3.8 14.15 1.78 29.85-5.17 42.73a59.07 59.07 0 0 1-32.1 27.84c-14.68 5.57-31.38 4.73-45.56-1.92a59.34 59.34 0 0 1-29.82-31.09c-4.2-10.22-5.99-22.1-3.63-32.98a17.6 17.6 0 0 1 5.7-1.4c16.9-1.37 33.84-2.38 50.78-3.11-.4 5.34-.18 10.53 2.1 15.47a26.66 26.66 0 0 0 18.61 15.04c4.89.87 9.94.6 14.61-1.13 8.19-2.82 14.36-9.95 16.48-18.27.92-3.9.66-7.59.54-11.55Z" fill="#fff"/><path d="M432.03 480.67c2.01-.23 3.8.3 5.74.68 4.2 9.05 4.82 19.93 3.38 29.69a55.08 55.08 0 0 1-23.63 36.48 54.76 54.76 0 0 1-37.5 8.79 54.68 54.68 0 0 1-38.26-23.14c-6.82-9.7-10.02-21.43-10-33.24 6.52-3.27 13.17-3.72 20.48-5.47 20.5-4.17 41.07-8.1 61.75-11.22 6-1 11.97-2.04 18.04-2.57Z" fill="#000"/><path d="M433.71 486.06c1.44 5.27 2.74 10.43 2.6 15.94-.2 9.5-3 19.08-8.31 27-9.89 15.06-28.07 23.77-46 21.87a49.72 49.72 0 0 1-32.18-16.71c-7.5-8.47-11.57-19.33-12.24-30.58 14.45-3.54 29.14-6.22 43.76-9 1.32 6.48 4.55 12.27 10.11 16.02 9.04 6.32 21.92 5.38 29.9-2.26 6.12-5.72 8.04-13.57 7.2-21.73l5.16-.54Z" fill="#fff"/></g><g transform="translate(-279 -322)"><g fill="#000"><path d="M517.07 379.66c.86-.91 2.17-2.3 1.77-3.56-.35-2.45-3.58-3.11-5.22-1.46a221.7 221.7 0 0 0-8.34 7.33c-2.16 1.96-4.3 3.92-6.5 5.8a117.9 117.9 0 0 1-3.06 2.73c-2.64 2.3-5.21 4.56-7.32 7.5.33.33.6.68.88 1.02.72.9 1.4 1.74 2.73 1.81 1.5-.08 2.71-1.13 3.82-2.1l.41-.35c4.3-4 8.7-7.9 13.1-11.8 2.52-2.24 5.05-4.47 7.55-6.73l.06-.07.12-.12ZM539.69 378.66c.54-1.8-.18-2.95-1.6-4-2-.34-3.84.74-5.58 1.76-.44.26-.87.51-1.3.74-4.43 2.64-8.92 5.2-13.4 7.77-4.83 2.76-9.66 5.51-14.4 8.37-1.63.86-1.65 2.04-1.68 3.44 0 .45-.02.93-.08 1.42.46.1.9.24 1.31.38 1.2.4 2.27.75 3.58-.05 5.06-2.8 10.07-5.7 15.09-8.62a959.63 959.63 0 0 1 14.42-8.28c1.36-.8 2.87-1.67 3.65-2.94ZM566.39 378.4c2.1-.74 4.24.22 4.44 2.6-.08 2.3-1.76 2.9-3.53 3.51l-.77.28c-12.18 3.72-24.35 7.5-36.5 11.31-.37.09-.73.2-1.08.3-1.34.4-2.64.78-4 .08-1.82-1.26-1.8-4.32.36-5.22 1.8-.82 3.73-1.38 5.65-1.93a4048.39 4048.39 0 0 0 14.1-4.35c7.1-2.22 14.2-4.44 21.33-6.58ZM589.38 390.36c1.02-1.63.62-2.97-.45-4.43-2.25-.73-4.9-.11-7.4.47-.87.2-1.72.4-2.52.53-2.84.58-5.7 1.14-8.54 1.7h-.02c-4.14.81-8.27 1.62-12.4 2.5-1.87.47-3.69 1.64-3.1 3.87.65 2.02 2.02 2.45 4.03 2.12 4.01-.7 8-1.52 12-2.35 3.85-.8 7.7-1.6 11.56-2.27l1.3-.26c1.93-.36 4.05-.75 5.54-1.88ZM405.8 394.7c1.93 1.26 3.85 2.5 5.81 3.7.74.48 1.5.94 2.25 1.4 1.73 1.05 3.47 2.11 5 3.4 1.7 1.35 1.2 4.27-.83 5-1.8.35-3.06-.44-4.43-1.29l-.94-.56c-4.3-2.78-8.62-5.51-12.95-8.25l-4.17-2.64c-.1-.08-.22-.17-.35-.25l-.37-.27c-1.1-.75-2.42-1.66-2.4-2.93-.35-2.43 2.22-4.08 4.37-2.87 3.08 1.7 6.05 3.64 9.01 5.57Z"/><path d="M383.94 395.53a45.88 45.88 0 0 0-5.95-1.72c-2.5-.5-4.12 2.02-3.31 4.28 1.14 1.27 2.56 1.75 4.08 2.26l.4.14.32.1c4.02 1.26 8.03 2.55 12.03 3.85h.03c4.14 1.34 8.27 2.68 12.42 3.96 2.46.78 4.88.57 5.36-2.42-.17-2.11-2-2.8-3.72-3.44l-.15-.05-.23-.09-.5-.2c-6.06-1.95-12.14-3.89-18.22-5.83-.85-.26-1.7-.55-2.56-.84ZM587.13 395.34c3.45-.22 6.9-.28 10.37-.34 2.5-.05 5-.1 7.5-.2.4.03.84.03 1.3.03 1.67 0 3.6 0 4.35 1.53 1.26 1.74-.2 3.78-2.02 4.19-2.91.62-6.04.6-9.1.58-1.19 0-2.37-.01-3.53.02-1 0-2 .04-3 .07-1.68.05-3.36.1-5.04.04-1.22 0-3.12-.35-3.5-1.7a3 3 0 0 1 2.67-4.22ZM360.28 402.87c-2.04-.1-4.17-.2-6.08.32-1.5 1.2-1.47 3.44-.15 4.8 1.66.7 3.64.86 5.45 1l.16.01.32.03c3.43.16 6.85.37 10.27.58 3.92.25 7.83.49 11.74.66.85.02 1.72.1 2.6.18 1.84.18 3.72.35 5.44-.06a2.78 2.78 0 0 0 1.12-4.59c-.84-.99-1.87-1.05-2.98-1.12-.38-.03-.77-.05-1.16-.11l-12.51-.81-12.5-.81c-.57-.01-1.14-.04-1.73-.07ZM348.97 411.64l4.48-.33c4.19-.34 8.4-.68 12.56-.42 2.93.26 3.13 4.75.25 5.42-2.9.73-5.97.84-9.03.96-1.76.06-3.52.13-5.23.31-1.17.04-2.36.15-3.55.25-2.47.22-4.96.44-7.36.12-2.45-.43-2.74-4.43-.52-5.35 1.77-.65 3.79-.73 5.76-.8.9-.04 1.79-.07 2.64-.16ZM345.51 425.36c2.91-.95 2.78-5.26-.48-5.63-2.85.03-5.72.55-8.57 1.06-1.35.24-2.69.48-4.02.67-.74.18-1.6.3-2.52.4-2.27.28-4.78.6-6.04 2.18-1.16 2.39.53 4.6 3.07 4.38 6.17-.74 12.5-1.76 18.56-3.06Z"/></g></g><g transform="translate(-279 -322)"><path d="M480.96 561.69c4.71-.58 10.26.05 13.71 3.66 3.78 3.9 4.15 9.42 3.22 14.53-2.65 11.8-12.87 21.43-24.84 23.27-7.5 1.5-15.57-.3-22.15-4.05-5.15-2.9-8.86-7.64-11.08-13.06-1.31-3.29-1.62-7.23-.43-10.59 1.3-3.11 4.12-5 7.34-5.7 5.66-1.83 11.66.27 16.63 3.05 4.58-5.09 10.57-10.17 17.59-11.1Z" fill="#000"/><path d="M480.51 567.7c3.3-1.03 7.38-.57 10 1.78 2.06 2.03 2.11 5.89 1.71 8.56-1.84 9.78-10.28 17.74-20.07 19.32-6.52 1.3-13.19-.33-18.84-3.68-4.3-2.52-7.44-6.98-8.81-11.72-.7-2.45-.36-5.07 2.04-6.38 2.59-1.08 5.76-1.02 8.48-.5 3.48.7 5.8 2.92 8.97 4.33 1.93-.09 2.62-1.39 3.81-2.64 3.32-3.94 7.69-7.62 12.7-9.07Z" fill="#8F2E45"/></g><g transform="translate(-279 -322)"></g></g></svg>