<svg xmlns="http://www.w3.org/2000/svg" viewBox="0 0 400 400" fill="none" shape-rendering="auto" width="512" height="512"><desc>"Adventurer Neutral" by "Lisa Wischofsky", licensed under "CC BY 4.0". / Remix of the original. - Created with dicebear.com</desc><metadata xmlns:dc="http://purl.org/dc/elements/1.1/" xmlns:cc="http://creativecommons.org/ns#" xmlns:rdf="http://www.w3.org/1999/02/22-rdf-syntax-ns#"><rdf:RDF><cc:Work><dc:title>Adventurer Neutral</dc:title><dc:creator><cc:Agent rdf:about="https://www.instagram.com/lischi_art/"><dc:title>Lisa Wischofsky</dc:title></cc:Agent></dc:creator><dc:source>https://www.figma.com/community/file/1184595184137881796</dc:source><cc:license rdf:resource="https://creativecommons.org/licenses/by/4.0/" /></cc:Work></rdf:RDF></metadata><mask id="viewboxMask"><rect width="400" height="400" rx="0" ry="0" x="0" y="0" fill="#fff" /></mask><g mask="url(#viewboxMask)"><rect fill="#ecad80" width="400" height="400" x="0" y="0" /><g transform="translate(-279 -322)"><path d="M547.51 424.76a65.19 65.19 0 0 1 74.24 57.74 65.15 65.15 0 0 1-11.25 43.98 65.94 65.94 0 0 1-31.67 24.34 65.9 65.9 0 0 1-37.82 1.79 65.13 65.13 0 0 1-40.76-30.86c-13-22.14-11.12-51.53 4.58-71.84 10.24-13.5 25.83-22.89 42.68-25.14Z" fill="#000"/><path d="M549.22 430.26c14.42-1.74 28.8 1.48 40.84 9.62a59.14 59.14 0 0 1 23.84 32.34 59.2 59.2 0 0 1-2.84 41.72c-6.1 13.63-17.66 24.89-31.56 30.42a58.2 58.2 0 0 1-32.5 3.68 59.7 59.7 0 0 1-36.17-20.89A60.9 60.9 0 0 1 497.24 491a60.5 60.5 0 0 1 13.45-39.31 59.49 59.49 0 0 1 38.53-21.43Z" fill="#fff"/><path d="M381.2 447.1a55.25 55.25 0 0 1 38.86 10.79 55.08 55.08 0 0 1 21.08 34.58c1.23 8.34.97 17.27-1.61 25.34a54.87 54.87 0 0 1-29.73 33.99 55.02 55.02 0 0 1-72.45-26.19c-4.7-10-6.75-21.7-4.67-32.61a54.52 54.52 0 0 1 16.82-31.5 55.1 55.1 0 0 1 31.7-14.4Z" fill="#000"/><path d="M378.22 453.3a49.36 49.36 0 0 1 56.15 35.19c5.15 17-.4 36.5-13.2 48.68-12.66 12.44-32.08 17.22-49 11.63a49.5 49.5 0 0 1-32.71-33.83 49.37 49.37 0 0 1 12.57-47.94 49.68 49.68 0 0 1 26.2-13.73Z" fill="#fff"/><path d="M558.77 456.74c-3.87 4-6.69 8.52-6.65 14.27a20.66 20.66 0 0 0 12.5 20.42c5.98 2.45 12.26 1.32 17.64-2-.16 9.43-2.85 18.5-9.28 25.57-9.4 10.74-24.98 15.07-38.53 10.43-14.35-4.54-24.66-18.38-24.98-33.42-.48-13.95 7.47-27.39 20.04-33.53 9.2-4.73 19.5-4.72 29.26-1.73ZM391.97 467.88c8-1.43 15.68.54 22.74 4.28-3.02 3.08-5.46 6.31-5.5 10.82-.67 7.23 4.56 14.26 11.75 15.48 3.41.68 6.2-.46 9.41-1.4 1.12 12.26-4.48 24.68-14.77 31.54-11.64 7.9-28.4 7-39.25-1.9-9.69-7.6-14.38-20.75-11.76-32.75 2.7-13.31 13.83-24.22 27.37-26.07Z" fill="#000"/><path d="M527.44 489.51c2.29-1 4.8-1.33 6.96.16 3.54 2.29 3.45 7.56.77 10.5-2.67 3.02-7.74 3.2-10.32-.07-2.84-3.42-1.31-8.7 2.6-10.6ZM379.44 495.55c4.76-1.63 9.31 3.59 7.07 8-1.61 3.63-6.93 4.38-9.39 1.31-2.61-2.97-1.48-8 2.32-9.31ZM536.5 504.69c2.48-.77 5.29-.59 7.77.12 6.15 2.42 8.05 11.23 3.58 16.06-3.97 4.75-11.78 4.84-15.7-.02-4.44-5.37-2.44-13.92 4.35-16.16ZM386.51 512.74c3.42-1.11 7.14-.63 9.61 2.16 3.5 3.38 3.36 9.65-.57 12.65-4.05 3.44-10.78 1.72-13.23-2.86-2.58-4.3-.61-10.32 4.19-11.95Z" fill="#fff"/></g><g transform="translate(-279 -322)"><path d="M530.96 352.34c21.47-3.31 42.8 3.14 60.6 15.1 12.06 8.18 22.9 19.67 28.97 33.02 1.1 2.96-.3 3.73-2.5 5.27-3.96-2.26-6.88-5.58-10.48-8.3-13-9.77-28.03-16.37-43.78-20.24-14.93-3.5-30.56-5.05-45.8-2.8-4.78.41-9.28 1.92-13.97 2.67-2.41.2-5.1-1.2-4.2-4.04 1.89-4.15 4.22-8.5 7.59-11.65 6.04-5.62 15.64-7.85 23.57-9.03ZM383 428.83c13.38-.82 26.33-.6 39.03 4.23 5.85 2.37 11.52 5.91 13.93 12.05 1.38 4.31.91 8.87-1.73 12.61-4.9-.76-9.4-2.6-14.18-3.82-23.13-6.33-47.19-8-71.04-5.96-4.88.33-9.86 2.03-14.72 1.78-1.78-.48-1.17-2.2-.97-3.54.88-2.5 3.58-3.86 5.76-5.1 13.75-7.24 28.55-10.64 43.92-12.25Z" fill="#000"/></g><g transform="translate(-279 -322)"><path d="M480.96 561.69c4.71-.58 10.26.05 13.71 3.66 3.78 3.9 4.15 9.42 3.22 14.53-2.65 11.8-12.87 21.43-24.84 23.27-7.5 1.5-15.57-.3-22.15-4.05-5.15-2.9-8.86-7.64-11.08-13.06-1.31-3.29-1.62-7.23-.43-10.59 1.3-3.11 4.12-5 7.34-5.7 5.66-1.83 11.66.27 16.63 3.05 4.58-5.09 10.57-10.17 17.59-11.1Z" fill="#000"/><path d="M480.51 567.7c3.3-1.03 7.38-.57 10 1.78 2.06 2.03 2.11 5.89 1.71 8.56-1.84 9.78-10.28 17.74-20.07 19.32-6.52 1.3-13.19-.33-18.84-3.68-4.3-2.52-7.44-6.98-8.81-11.72-.7-2.45-.36-5.07 2.04-6.38 2.59-1.08 5.76-1.02 8.48-.5 3.48.7 5.8 2.92 8.97 4.33 1.93-.09 2.62-1.39 3.81-2.64 3.32-3.94 7.69-7.62 12.7-9.07Z" fill="#8F2E45"/></g><g transform="translate(-279 -322)"></g></g></svg>