<svg xmlns="http://www.w3.org/2000/svg" viewBox="0 0 600 600" fill="none" shape-rendering="auto" width="512" height="512"><desc>"Lorelei Neutral" by "Lisa Wischofsky", licensed under "CC0 1.0". / Remix of the original. - Created with dicebear.com</desc><metadata xmlns:dc="http://purl.org/dc/elements/1.1/" xmlns:cc="http://creativecommons.org/ns#" xmlns:rdf="http://www.w3.org/1999/02/22-rdf-syntax-ns#"><rdf:RDF><cc:Work><dc:title>Lorelei Neutral</dc:title><dc:creator><cc:Agent rdf:about="https://www.instagram.com/lischi_art/"><dc:title>Lisa Wischofsky</dc:title></cc:Agent></dc:creator><dc:source>https://www.figma.com/community/file/1198749693280469639</dc:source><cc:license rdf:resource="https://creativecommons.org/licenses/zero/1.0/" /></cc:Work></rdf:RDF></metadata><mask id="viewboxMask"><rect width="600" height="600" rx="0" ry="0" x="0" y="0" fill="#fff" /></mask><g mask="url(#viewboxMask)"><rect fill="#ffdfbf" width="600" height="600" x="0" y="0" /><g transform="translate(-246 -234)"><path d="M492 386c7 0 13 0 19 2 8 2 15 5 18 13 4 7 4 14 2 22-1 4-4 7-9 8-8 3-17 1-26-1-7-1-15-3-22-6-6-3-12-8-13-14-2-6 2-13 7-16 7-6 16-7 24-8ZM658 388c5 1 9 4 11 9 2 3 1 8 0 11-1 4-5 8-8 10-5 5-11 6-18 8-5 1-12 3-18 1-2-1-6-4-7-7-3-11 3-25 14-30 8-4 17-4 26-2Z" fill="#000000"/></g><g transform="translate(-246 -234)"><path d="M681 473c6 2 13 7 15 14 2 4 1 9-3 12-5 2-10 0-12-4-3-3-7-7-12-8-4-1-9 0-13 2l4 5c4 6 5 14 5 21s-2 14-4 20c3-1 6-4 10-4 0 4 0 7-2 10-5 6-13 10-21 11s-17 2-24-3c-5-3-5-8-5-13l-2-6c0-10 4-19 9-27 7-11 17-20 29-26 8-4 17-6 26-4ZM473 519c14 2 28 6 42 11 3 1 6 1 8 4 4 3 4 9 0 12-3 2-7 2-11 2h-45c-13 0-28 1-41-1l-7-3-14 2c-2 0-5 0-6-2-3-2-2-6 0-8s6-3 9-4c9-2 18-4 27-4l9-1-16-1c-6-1-13 0-19-2-2 0-3-1-3-3s2-2 3-3l15-2c16-1 33 0 49 3Z" fill="#000000"/></g><g transform="translate(-246 -234)"></g><g transform="translate(-246 -234)"><path d="M478 678c3-1 5 0 5 2 0 3-3 6-6 7-3-3-2-7 1-9ZM503 690l36 7 30 2c7 1 13 0 19 2-1 2-3 3-6 4a158 158 0 0 1-74-6c-3-1-7-3-8-6-1-2 1-4 3-3Z" fill="#000000"/></g><g transform="translate(-246 -234)"><path d="M603 613v1c-4 8-11 15-20 18-3 1-7 1-9-1v-4c7-5 16-9 24-12l5-2Z" fill="#000000"/></g><g transform="translate(-246 -234)"></g></g></svg>