<svg xmlns="http://www.w3.org/2000/svg" viewBox="0 0 600 600" fill="none" shape-rendering="auto" width="512" height="512"><desc>"Lorelei Neutral" by "Lisa Wischofsky", licensed under "CC0 1.0". / Remix of the original. - Created with dicebear.com</desc><metadata xmlns:dc="http://purl.org/dc/elements/1.1/" xmlns:cc="http://creativecommons.org/ns#" xmlns:rdf="http://www.w3.org/1999/02/22-rdf-syntax-ns#"><rdf:RDF><cc:Work><dc:title>Lorelei Neutral</dc:title><dc:creator><cc:Agent rdf:about="https://www.instagram.com/lischi_art/"><dc:title>Lisa Wischofsky</dc:title></cc:Agent></dc:creator><dc:source>https://www.figma.com/community/file/1198749693280469639</dc:source><cc:license rdf:resource="https://creativecommons.org/licenses/zero/1.0/" /></cc:Work></rdf:RDF></metadata><mask id="viewboxMask"><rect width="600" height="600" rx="0" ry="0" x="0" y="0" fill="#fff" /></mask><g mask="url(#viewboxMask)"><rect fill="#ffdfbf" width="600" height="600" x="0" y="0" /><g transform="translate(-246 -234)"><path d="M467 377c15 1 32 5 44 15 4 3 8 7 9 11 1 3 1 5-2 6-3 0-6-3-8-5-11-8-24-13-38-13-8 0-15 2-23 4-15 3-29 11-38 23-3 3-5 7-10 8s-10-3-10-8c-1-4 2-8 4-11 12-15 30-25 49-29 7-2 15-2 23-1ZM672 387c5 2 10 7 13 11 3 3 5 7 5 11 0 6-6 10-12 8-5-2-6-7-10-11-4-3-9-7-13-8-12-4-24 1-32 9l-9 9c0-7 4-13 9-17 12-13 32-18 49-12Z" fill="#000000"/></g><g transform="translate(-246 -234)"><path d="M665 473c7-1 15-1 22 3 6 4 10 9 11 16l17 3c-4 4-11 6-17 6-5 0-11-1-15-4l-10-8c-6-3-11-2-17 0 3 3 6 6 7 10 4 12 3 25-2 36l10-5c1 6-1 10-5 13-8 9-21 10-33 10-4-1-10-3-12-7-3-4-1-8-3-12s-1-9 0-13a70 70 0 0 1 47-48ZM457 484c27 1 52 18 64 42 2 2 3 6 1 9-3 0-5-4-7-6-6-10-14-18-23-24-10-6-21-8-32-8 6 10 9 22 8 33-1 9-5 19-12 25l9 4c-6 3-12 3-18 2-11-3-21-8-30-15-9-6-16-15-19-25-14 0-29-2-43-8 3-2 5-2 8-2l28-4c4-1 8-1 11-4 15-13 35-20 55-19Z" fill="#000000"/></g><g transform="translate(-246 -234)"></g><g transform="translate(-246 -234)"><path d="M478 678c3-1 5 0 5 2 0 3-3 6-6 7-3-3-2-7 1-9ZM503 690l36 7 30 2c7 1 13 0 19 2-1 2-3 3-6 4a158 158 0 0 1-74-6c-3-1-7-3-8-6-1-2 1-4 3-3Z" fill="#000000"/></g><g transform="translate(-246 -234)"><path d="M603 613v1c-4 8-11 15-20 18-3 1-7 1-9-1v-4c7-5 16-9 24-12l5-2Z" fill="#000000"/></g><g transform="translate(-246 -234)"></g></g></svg>