<svg xmlns="http://www.w3.org/2000/svg" viewBox="0 0 600 600" fill="none" shape-rendering="auto" width="512" height="512"><desc>"Lorelei Neutral" by "Lisa Wischofsky", licensed under "CC0 1.0". / Remix of the original. - Created with dicebear.com</desc><metadata xmlns:dc="http://purl.org/dc/elements/1.1/" xmlns:cc="http://creativecommons.org/ns#" xmlns:rdf="http://www.w3.org/1999/02/22-rdf-syntax-ns#"><rdf:RDF><cc:Work><dc:title>Lorelei Neutral</dc:title><dc:creator><cc:Agent rdf:about="https://www.instagram.com/lischi_art/"><dc:title>Lisa Wischofsky</dc:title></cc:Agent></dc:creator><dc:source>https://www.figma.com/community/file/1198749693280469639</dc:source><cc:license rdf:resource="https://creativecommons.org/licenses/zero/1.0/" /></cc:Work></rdf:RDF></metadata><mask id="viewboxMask"><rect width="600" height="600" rx="0" ry="0" x="0" y="0" fill="#fff" /></mask><g mask="url(#viewboxMask)"><rect fill="#ffdfbf" width="600" height="600" x="0" y="0" /><g transform="translate(-246 -234)"><path d="M479 386c16 1 33 7 46 17 3 3 7 5 8 9 1 2-1 5-3 4-8-1-15-5-23-7-7-3-15-5-23-5-7-1-15 0-22 1-15 2-30 9-43 16l-21 9-1-1c1-4 3-9 6-12 6-10 17-16 27-21 15-7 32-11 49-10ZM673 390c5 2 11 5 15 10 4 4 5 9 4 15l-23-7c-7-2-13-1-20-2-7 0-15 1-21 5l-13 8h-3c-1-3 0-6 2-8 5-9 13-15 22-18 12-4 24-6 37-3Z" fill="#000000"/></g><g transform="translate(-246 -234)"><g fill="#000000"><path d="M669 473c8-1 16 1 22 6 3 3 6 7 6 12s-5 9-10 8c-6-1-7-6-11-9-3-2-6-3-10-3 7 10 7 23 3 34-2 9-8 16-16 19-7 3-14 0-18-5-5-5-7-13-7-20l-7 15c-1 2 0 4-3 5-2-6-1-11 1-17 6-16 17-30 32-38 5-4 11-6 18-7ZM457 484c26 1 51 17 63 40 2 2 4 6 3 9 0 2-1 2-3 1-3-2-4-5-6-8l-12-13c2 11 0 23-7 32-6 7-16 11-25 10-13-2-25-13-27-26-3-10 0-21 6-30-14 3-27 9-39 18-2 1-2 4-1 6l8 11c11 10 24 17 37 21l11 4c-5 3-12 3-18 2-13-3-25-10-34-19-6-5-11-12-14-19-1-4-4-6-4-10 0-5 5-9 9-12 15-12 34-18 53-17Z"/><path d="M670 530c2 4 0 9-2 12-5 5-12 9-19 10-8 1-17 2-25-2-1-1-4-3-2-5h7c11 1 22-3 31-8l10-7Z"/></g></g><g transform="translate(-246 -234)"></g><g transform="translate(-246 -234)"><path d="m636 651-7 8-17 16c-9 10-19 18-32 22-18 6-38 4-57 0-10-3-21-7-31-13l-6-5c0-3 2-4 4-4l17 5 33-4c13-2 27-3 39 0l5-1 19-8c4-2 8-3 13-3 6-4 13-10 20-13Z" fill="#000000"/></g><g transform="translate(-246 -234)"><path d="M603 613v1c-4 8-11 15-20 18-3 1-7 1-9-1v-4c7-5 16-9 24-12l5-2Z" fill="#000000"/></g><g transform="translate(-246 -234)"></g></g></svg>