<svg xmlns="http://www.w3.org/2000/svg" viewBox="0 0 600 600" fill="none" shape-rendering="auto" width="512" height="512"><desc>"Lorelei Neutral" by "Lisa Wischofsky", licensed under "CC0 1.0". / Remix of the original. - Created with dicebear.com</desc><metadata xmlns:dc="http://purl.org/dc/elements/1.1/" xmlns:cc="http://creativecommons.org/ns#" xmlns:rdf="http://www.w3.org/1999/02/22-rdf-syntax-ns#"><rdf:RDF><cc:Work><dc:title>Lorelei Neutral</dc:title><dc:creator><cc:Agent rdf:about="https://www.instagram.com/lischi_art/"><dc:title>Lisa Wischofsky</dc:title></cc:Agent></dc:creator><dc:source>https://www.figma.com/community/file/1198749693280469639</dc:source><cc:license rdf:resource="https://creativecommons.org/licenses/zero/1.0/" /></cc:Work></rdf:RDF></metadata><mask id="viewboxMask"><rect width="600" height="600" rx="0" ry="0" x="0" y="0" fill="#fff" /></mask><g mask="url(#viewboxMask)"><rect fill="#ffdfbf" width="600" height="600" x="0" y="0" /><g transform="translate(-246 -234)"><g fill="#000000"><path d="M675 381c5 0 8 4 9 8-11 3-23 8-34 13l-16 8c-7 4-14 7-22 9-5 1-9 0-13 3l-7 8c-3 3-4 7-6 12-1-1-3-2-3-4-2-5 0-11 2-16 2-6 3-12 8-17 3-4 5-8 9-10 4-3 10-4 14 0l1 6 25-14c11-4 21-8 33-6ZM481 383c14 2 32 1 44 7 9 4 13 11 18 19l-1 4c-4 3-9 4-14 2-4-2-6-6-9-8-2-2-5-2-8-3l-25-2c-12-1-24-6-36-7l-27-5-5-2c9-3 19-4 29-5 11 0 23-2 34 0Z"/><path d="M540 387c6-2 12-2 16 2 6 3 9 9 11 15 0-4 2-9 5-12 6 3 11 9 13 15 1 5 2 10 0 15s-9 8-13 5c-4-4-4-12-5-18-1 4-2 8-5 10s-7 1-9-2l-5-12-7-15-1-3Z"/></g></g><g transform="translate(-246 -234)"><path d="M669 473c8-1 16 1 22 6 3 3 6 7 6 11 1 5-4 10-9 10-4-1-6-3-8-6l-10-7c9 16 4 38-10 49-7 6-18 8-25 1-6-5-8-12-8-20-2 5-5 9-6 14-1 2-1 4-3 4-2-5-1-11 1-17 6-16 17-30 32-38 5-4 11-6 18-7ZM457 484c27 1 53 18 64 42 2 2 4 6 1 9-3 0-5-4-7-6-4-8-10-14-17-19 2 11 2 21-4 31-5 8-16 13-25 12-7-2-14-5-19-11-6-6-8-16-8-24 0-7 3-13 6-18-14 3-28 9-39 18-3 1-5 3-8 3-4-1-6-4-6-8 0-3 2-6 4-8 8-6 16-12 26-16s21-6 32-5Z" fill="#000000"/></g><g transform="translate(-246 -234)"></g><g transform="translate(-246 -234)"><path fill-rule="evenodd" clip-rule="evenodd" d="M438 634c-4 6-11 11-19 13 0-4 3-7 6-9 4-3 8-5 13-4Zm14 12 32 5 24 6c15 4 29 8 44 10 10 1 20 0 29-1 12-2 23-4 36-1 6 2 11 6 15 11 3 5 4 10 2 16s-7 13-13 17c-7 5-15 6-24 7l-30 3-29-2-21-5-10-3-12-3-14-4-23-8-17-10c-7-5-10-15-8-23 2-9 10-15 19-15Zm4 9-9 1c-4 1-7 4-8 8 0 3 2 6 3 8v1l8 8 4 2c0-9 0-19 4-27l-2-1Zm9 2a703 703 0 0 1 40 10c-2 11-5 22-4 33l-22-6-14-5-4-2 4-17v-13Zm87 20c-14-1-27-5-41-8a46 46 0 0 1-1 18c-1 5-2 10-5 14l9 2 13 4 17 3 5 1c-3-10 0-21 2-30l1-4Zm54-5c4 0 8 0 12 2 3 1 6 5 8 8 1 2 2 5 1 8-3 5-7 10-12 13s-10 4-16 5l-2 1 7-18 2-19Zm-13 25 5-25-15 3-23 2c0 10-2 19-5 29l-2 5a135 135 0 0 0 35-1l4-1 1-12Z" fill="#000000"/></g><g transform="translate(-246 -234)"><path d="M597 505h1l3 15 3 26 8 13 6 12c2 5 2 10 5 14 3 5 5 10 5 16 0 9-6 17-14 20l-19 8c-5 3-9 5-15 5-5 0-11 0-13-5-2-2 0-4 2-5l12-3 16-5 13-5c6-2 9-8 7-14l-5-8-7-17-7-19c-4-8-6-17-5-26 0-7 1-15 4-22Z" fill="#000000"/></g><g transform="translate(-246 -234)"></g></g></svg>