<svg xmlns="http://www.w3.org/2000/svg" viewBox="0 0 600 600" fill="none" shape-rendering="auto" width="512" height="512"><desc>"Lorelei Neutral" by "Lisa Wischofsky", licensed under "CC0 1.0". / Remix of the original. - Created with dicebear.com</desc><metadata xmlns:dc="http://purl.org/dc/elements/1.1/" xmlns:cc="http://creativecommons.org/ns#" xmlns:rdf="http://www.w3.org/1999/02/22-rdf-syntax-ns#"><rdf:RDF><cc:Work><dc:title>Lorelei Neutral</dc:title><dc:creator><cc:Agent rdf:about="https://www.instagram.com/lischi_art/"><dc:title>Lisa Wischofsky</dc:title></cc:Agent></dc:creator><dc:source>https://www.figma.com/community/file/1198749693280469639</dc:source><cc:license rdf:resource="https://creativecommons.org/licenses/zero/1.0/" /></cc:Work></rdf:RDF></metadata><mask id="viewboxMask"><rect width="600" height="600" rx="0" ry="0" x="0" y="0" fill="#fff" /></mask><g mask="url(#viewboxMask)"><rect fill="#ffd5dc" width="600" height="600" x="0" y="0" /><g transform="translate(-246 -234)"><path d="M492 386c7 0 13 0 19 2 8 2 15 5 18 13 4 7 4 14 2 22-1 4-4 7-9 8-8 3-17 1-26-1-7-1-15-3-22-6-6-3-12-8-13-14-2-6 2-13 7-16 7-6 16-7 24-8ZM658 388c5 1 9 4 11 9 2 3 1 8 0 11-1 4-5 8-8 10-5 5-11 6-18 8-5 1-12 3-18 1-2-1-6-4-7-7-3-11 3-25 14-30 8-4 17-4 26-2Z" fill="#000000"/></g><g transform="translate(-246 -234)"><path d="M683 485c4 0 8 0 10 3 4 3 4 10-1 13-3 2-6 2-10 2l-18 4c0 7-1 15-4 22-2 5-6 9-10 12-6 3-13 1-17-4l-3-8c-3 3-5 6-9 8-3 1-4 0-4-3 1-6 4-11 8-15a91 91 0 0 1 42-32l16-2ZM441 499c11 0 21 2 31 4 14 4 28 8 40 18 3 3 8 6 9 10 0 2 0 3-2 3l-11-5c-10-5-22-8-34-10-2 9-4 18-10 26-4 4-9 6-15 6-8-1-16-5-21-11-5-7-6-14-7-23l-14 4c-3 1-6 2-9 1-5-1-7-6-6-11 1-4 5-6 9-7 12-5 27-6 40-5Z" fill="#000000"/></g><g transform="translate(-246 -234)"></g><g transform="translate(-246 -234)"><path fill-rule="evenodd" clip-rule="evenodd" d="M654 667c2-4 0-9-4-10-8-2-16-1-24-1l-57 6a445 445 0 0 1-56 5l-21 1a255 255 0 0 1-34-1c-4-1-8-1-12 1h1c0 2 1 3 3 3 8 3 16 4 25 5 1 4 3 7 7 9l11 7a503 503 0 0 1 5 3l23 10a175 175 0 0 0 31 8c7 2 14 3 22 2l21-5c6-2 12-5 17-9a129 129 0 0 0 26-23l8-8c3 0 6 0 8-3Zm-30 9 8-9a207 207 0 0 0-78 4l-4 1c-22 3-45 6-67 5l5 2 20 8c17 8 35 13 53 17 15 2 30-2 43-8 8-5 14-12 20-20Z" fill="#000000"/></g><g transform="translate(-246 -234)"><path d="M603 613v1c-4 8-11 15-20 18-3 1-7 1-9-1v-4c7-5 16-9 24-12l5-2Z" fill="#000000"/></g><g transform="translate(-246 -234)"></g></g></svg>