<svg xmlns="http://www.w3.org/2000/svg" viewBox="0 0 112 112" fill="none" shape-rendering="auto" width="512" height="512"><desc>"Avataaars" by "Pablo Stanley", licensed under "Free for personal and commercial use.". / Remix of the original. - Created with dicebear.com</desc><metadata xmlns:dc="http://purl.org/dc/elements/1.1/" xmlns:cc="http://creativecommons.org/ns#" xmlns:rdf="http://www.w3.org/1999/02/22-rdf-syntax-ns#"><rdf:RDF><cc:Work><dc:title>Avataaars</dc:title><dc:creator><cc:Agent rdf:about="https://twitter.com/pablostanley"><dc:title>Pablo Stanley</dc:title></cc:Agent></dc:creator><dc:source>https://avataaars.com/</dc:source><cc:license rdf:resource="https://avataaars.com/" /></cc:Work></rdf:RDF></metadata><mask id="viewboxMask"><rect width="112" height="112" rx="0" ry="0" x="0" y="0" fill="#fff" /></mask><g mask="url(#viewboxMask)"><rect fill="#ffdbb4" width="112" height="112" x="0" y="0" /><g transform="translate(2 63)"><path fill-rule="evenodd" clip-rule="evenodd" d="M29 15.6C30.41 25.24 41.06 33 54 33c12.97 0 23.65-7.82 25-18.26.1-.4-.22-1.74-2.17-1.74H31.17c-1.79 0-2.3 1.24-2.17 2.6Z" fill="#000" fill-opacity=".7"/><path d="M70 13H39a5 5 0 0 0 5 5h21a5 5 0 0 0 5-5Z" fill="#fff"/><path d="M43 23.5a1.88 1.88 0 0 0 0 .13v8.87a11.5 11.5 0 1 0 23 0v-8.87a1.62 1.62 0 0 0 0-.13c0-1.93-2.91-3.5-6.5-3.5-2.01 0-3.8.5-5 1.26a9.45 9.45 0 0 0-5-1.26c-3.59 0-6.5 1.57-6.5 3.5Z" fill="#FF4F6D"/></g><g transform="translate(28 51)"><path fill-rule="evenodd" clip-rule="evenodd" d="M16 8c0 4.42 5.37 8 12 8s12-3.58 12-8" fill="#000" fill-opacity=".16"/></g><g transform="translate(0 19)"><circle cx="82" cy="22" r="12" fill="#fff"/><circle cx="82" cy="22" r="6" fill="#000" fill-opacity=".7"/><path fill-rule="evenodd" clip-rule="evenodd" d="M16.16 25.45c1.85-3.8 6-6.45 10.84-6.45 4.81 0 8.96 2.63 10.82 6.4.55 1.13-.24 2.05-1.03 1.37a15.05 15.05 0 0 0-9.8-3.43c-3.73 0-7.12 1.24-9.55 3.23-.9.73-1.82-.01-1.28-1.12Z" fill="#000" fill-opacity=".6"/></g><g transform="translate(0 11)"><path d="M36.37 6.88c-1.97 2.9-5.55 4.64-8.74 5.68-3.94 1.29-18.55 3.38-15.11 11.35.05.12.22.12.27 0 1.15-2.65 17.47-5.12 18.97-5.7 4.45-1.71 8.4-5.5 9.17-10.55.35-2.31-.64-6.05-1.55-7.55-.11-.18-.37-.13-.43.07-.36 1.33-1.41 4.97-2.58 6.7ZM75.63 6.88c1.97 2.9 5.55 4.64 8.74 5.68 3.94 1.29 18.55 3.38 15.11 11.35a.15.15 0 0 1-.27 0c-1.15-2.65-17.47-5.12-18.97-5.7-4.45-1.71-8.4-5.5-9.17-10.55-.35-2.31.64-6.05 1.55-7.55.11-.18.37-.13.43.07.36 1.33 1.41 4.97 2.58 6.7Z" fill-rule="evenodd" clip-rule="evenodd" fill="#000" fill-opacity=".6"/></g></g></svg>