<svg xmlns="http://www.w3.org/2000/svg" viewBox="0 0 210 210" fill="none" shape-rendering="auto" width="512" height="512"><desc>"Face Generator" by "The Visual Team", licensed under "CC BY 4.0". / Remix of the original. - Created with dicebear.com</desc><metadata xmlns:dc="http://purl.org/dc/elements/1.1/" xmlns:cc="http://creativecommons.org/ns#" xmlns:rdf="http://www.w3.org/1999/02/22-rdf-syntax-ns#"><rdf:RDF><cc:Work><dc:title>Face Generator</dc:title><dc:creator><cc:Agent rdf:about="https://thevisual.team/"><dc:title>The Visual Team</dc:title></cc:Agent></dc:creator><dc:source>https://www.figma.com/community/file/986078800058673824</dc:source><cc:license rdf:resource="https://creativecommons.org/licenses/by/4.0/" /></cc:Work></rdf:RDF></metadata><mask id="viewboxMask"><rect width="210" height="210" rx="0" ry="0" x="0" y="0" fill="#fff" /></mask><g mask="url(#viewboxMask)"><rect fill="#da9969" width="210" height="210" x="0" y="0" /><g transform="translate(86.8 138.9) scale(.71856)"><path d="M59 19.4a31 31 0 1 1-62 0c0-17.2 13.8-4.2 31-4.2 17 0 31-13 31 4.2Z" fill="#DE8383"/><path fill-rule="evenodd" clip-rule="evenodd" d="M57.5 28.6H-1.7c-.9-3-1.3-6-1.3-9.2 0-11.2 5.9-9.6 14.8-7a59.5 59.5 0 0 0 16.1 2.8c6 0 11.5-1.5 16.2-2.9 9-2.5 14.8-4.1 14.8 7a31 31 0 0 1-1.4 9.3Z" fill="#F9F9F9"/></g><g transform="translate(2 11) scale(.71856)"><path d="M76 75.5a23.9 23.9 0 1 0 40.7 22.7L76.2 75.6ZM212.1 75.5a23.9 23.9 0 1 1-40.7 22.7L212 75.6Z" fill="#fff"/><path d="M74.5 52.5c7.5 5 40 26 49 31.5M213 53c-7.5 5-40 26-49 31.5" stroke="#000" stroke-width="3.7" stroke-linecap="round"/><path d="M86.1 81.2a12.8 12.8 0 1 0 20.6 11.5L86.1 81.2ZM202 81.2a12.8 12.8 0 1 1-20.5 11.5L202 81.2Z" fill="#000"/></g><g transform="translate(15 89.2) scale(.71856)"><g fill="#000" fill-opacity=".4"><rect x="33" y="38.5" width="12.9" height="12.9" rx="6.4"/><rect x="57.1" y="24" width="12.9" height="14.5" rx="6.4"/><rect x="76.4" y="38.5" width="12.9" height="12.9" rx="6.4"/><rect x="166.4" y="38.5" width="12.9" height="12.9" rx="6.4"/><rect x="190.5" y="24" width="12.9" height="14.5" rx="6.4"/><rect x="209.8" y="38.5" width="12.9" height="12.9" rx="6.4"/></g></g><g transform="translate(80.3 79.8) scale(.71856)"><path d="M16.6 46.2A11.3 11.3 0 0 0 28.3 61 11.3 11.3 0 0 0 50 61h1a11.3 11.3 0 0 0 10.7-15A11.3 11.3 0 0 1 50 53.9a11.3 11.3 0 0 1-21.8 0h-1c-5 0-9.2-3.1-10.7-7.6Z" fill="#000" fill-opacity=".2"/></g></g></svg>