<svg xmlns="http://www.w3.org/2000/svg" viewBox="0 0 210 210" fill="none" shape-rendering="auto" width="512" height="512"><desc>"Face Generator" by "The Visual Team", licensed under "CC BY 4.0". / Remix of the original. - Created with dicebear.com</desc><metadata xmlns:dc="http://purl.org/dc/elements/1.1/" xmlns:cc="http://creativecommons.org/ns#" xmlns:rdf="http://www.w3.org/1999/02/22-rdf-syntax-ns#"><rdf:RDF><cc:Work><dc:title>Face Generator</dc:title><dc:creator><cc:Agent rdf:about="https://thevisual.team/"><dc:title>The Visual Team</dc:title></cc:Agent></dc:creator><dc:source>https://www.figma.com/community/file/986078800058673824</dc:source><cc:license rdf:resource="https://creativecommons.org/licenses/by/4.0/" /></cc:Work></rdf:RDF></metadata><mask id="viewboxMask"><rect width="210" height="210" rx="0" ry="0" x="0" y="0" fill="#fff" /></mask><g mask="url(#viewboxMask)"><rect fill="#f8b788" width="210" height="210" x="0" y="0" /><g transform="translate(86.8 138.9) scale(.71856)"><path d="M-24 27.7a17 17 0 0 1 17-17h65.7a17 17 0 0 1 0 34H-7a17 17 0 0 1-17-17Z" fill="#DE8383"/><path fill-rule="evenodd" clip-rule="evenodd" d="M75.6 26h-99.5A17 17 0 0 1-7 9.7h65.6a17 17 0 0 1 17 16.3Z" fill="#F9F9F9"/></g><g transform="translate(2 11) scale(.71856)"><path d="M178.4 52.7c3.7-2.9 9.4-8.7 20.6-8.7a26 26 0 0 1 18.8 8.7M67.4 52.7C71 49.8 76.8 44 87.9 44a26 26 0 0 1 18.9 8.7" stroke="#000" stroke-width="3.7" stroke-linecap="round"/><circle cx="88.4" cy="90.8" r="28.4" fill="#fff"/><circle cx="198.7" cy="90.8" r="28.4" fill="#fff"/><circle cx="88.4" cy="90.8" r="15.3" fill="#757575"/><circle cx="198.7" cy="90.8" r="15.3" fill="#757575"/></g><g transform="translate(15 89.2) scale(.71856)"><g fill="#FFC6C6"><rect x="11" y="16" width="56.3" height="43.4" rx="21.7"/><rect x="191" y="16" width="56.3" height="43.4" rx="21.7"/></g></g><g transform="translate(80.3 79.8) scale(.71856)"><path d="M18.6 38.3A10 10 0 0 0 29 45a10 10 0 0 0 19.4 0h.9a10 10 0 0 0 9.5-6.7 10 10 0 0 1-10.4 13.4 10 10 0 0 1-19.4 0H28a10 10 0 0 1-9.5-13.4Z" fill="#000" fill-opacity=".2"/></g></g></svg>