<svg xmlns="http://www.w3.org/2000/svg" viewBox="0 0 210 210" fill="none" shape-rendering="auto" width="512" height="512"><desc>"Face Generator" by "The Visual Team", licensed under "CC BY 4.0". / Remix of the original. - Created with dicebear.com</desc><metadata xmlns:dc="http://purl.org/dc/elements/1.1/" xmlns:cc="http://creativecommons.org/ns#" xmlns:rdf="http://www.w3.org/1999/02/22-rdf-syntax-ns#"><rdf:RDF><cc:Work><dc:title>Face Generator</dc:title><dc:creator><cc:Agent rdf:about="https://thevisual.team/"><dc:title>The Visual Team</dc:title></cc:Agent></dc:creator><dc:source>https://www.figma.com/community/file/986078800058673824</dc:source><cc:license rdf:resource="https://creativecommons.org/licenses/by/4.0/" /></cc:Work></rdf:RDF></metadata><mask id="viewboxMask"><rect width="210" height="210" rx="0" ry="0" x="0" y="0" fill="#fff" /></mask><g mask="url(#viewboxMask)"><rect fill="#ffdfbf" width="210" height="210" x="0" y="0" /><g transform="translate(86.8 138.9) scale(.71856)"><path d="M82.7 33.4c0 16.9-24.2 4-54.2 4-30 0-54.2 12.9-54.2-4S-1.4 3 28.5 3c30 0 54.2 13.6 54.2 30.5Z" fill="#DE8383"/></g><g transform="translate(2 11) scale(.71856)"><path d="M76 52.4c3.6-2.8 9-8.4 19.8-8.4a25 25 0 0 1 18 8.4M180 52.4c3.6-2.8 9-8.4 19.8-8.4a25 25 0 0 1 18 8.4" stroke="#000" stroke-width="3.7" stroke-linecap="round"/><rect x="71" y="61.5" width="49.6" height="60.6" rx="14.4" fill="#fff"/><rect x="173" y="61.5" width="49.6" height="60.6" rx="14.4" fill="#fff"/><rect x="82" y="69.7" width="30.3" height="46.9" rx="9.6" fill="#000"/><rect x="181.3" y="69.7" width="30.3" height="46.9" rx="9.6" fill="#000"/></g><g transform="translate(15 89.2) scale(.71856)"><g fill="#000" fill-opacity=".2"><rect x="33" y="38.5" width="12.9" height="12.9" rx="6.4"/><rect x="57.1" y="24" width="12.9" height="14.5" rx="6.4"/><rect x="76.4" y="38.5" width="12.9" height="12.9" rx="6.4"/><rect x="166.4" y="38.5" width="12.9" height="12.9" rx="6.4"/><rect x="190.5" y="24" width="12.9" height="14.5" rx="6.4"/><rect x="209.8" y="38.5" width="12.9" height="12.9" rx="6.4"/></g></g><g transform="translate(80.3 79.8) scale(.71856)"><path d="M37 14v27c-3.7.7-11 4-11 10.5 0 8.2 7.3 10.5 11 11.7" stroke="#000" stroke-opacity=".5" stroke-width="4" stroke-linecap="round" stroke-linejoin="round"/></g></g></svg>