<svg xmlns="http://www.w3.org/2000/svg" viewBox="0 0 210 210" fill="none" shape-rendering="auto" width="512" height="512"><desc>"Face Generator" by "The Visual Team", licensed under "CC BY 4.0". / Remix of the original. - Created with dicebear.com</desc><metadata xmlns:dc="http://purl.org/dc/elements/1.1/" xmlns:cc="http://creativecommons.org/ns#" xmlns:rdf="http://www.w3.org/1999/02/22-rdf-syntax-ns#"><rdf:RDF><cc:Work><dc:title>Face Generator</dc:title><dc:creator><cc:Agent rdf:about="https://thevisual.team/"><dc:title>The Visual Team</dc:title></cc:Agent></dc:creator><dc:source>https://www.figma.com/community/file/986078800058673824</dc:source><cc:license rdf:resource="https://creativecommons.org/licenses/by/4.0/" /></cc:Work></rdf:RDF></metadata><mask id="viewboxMask"><rect width="210" height="210" rx="0" ry="0" x="0" y="0" fill="#fff" /></mask><g mask="url(#viewboxMask)"><rect fill="#f8b788" width="210" height="210" x="0" y="0" /><g transform="translate(86.8 138.9) scale(.71856)"><path d="M60.7 22.9c0 16.9-14.8 30.5-33 30.5C9.2 53.4-5.6 39.8-5.6 23S-1 8 27.6 8c34 0 33-2 33 14.8Z" fill="#DE8383"/><path fill-rule="evenodd" clip-rule="evenodd" d="M55.1 8.7c-5 4.8-15.3 9-27.2 9A42 42 0 0 1 1 9.3C4 7.9 9.8 8 21.5 8a2115 2115 0 0 0 14.8 0c9.4 0 15.3 0 18.8.7Z" fill="#F9F9F9"/></g><g transform="translate(2 11) scale(.71856)"><g stroke="#000" stroke-linecap="round"><path d="M222 49c-4.2 3.4-10.8 10.1-23.7 10.1a30 30 0 0 1-21.8-10" stroke-width="8.3"/><path d="M222 89c-4.2 3.4-10.8 10.1-23.7 10.1a30 30 0 0 1-21.8-10" stroke-width="4.1"/><path d="M110.6 49c-4.3 3.4-11 10.1-23.8 10.1A30 30 0 0 1 65 49" stroke-width="8.3"/><path d="M110.6 89c-4.3 3.4-11 10.1-23.8 10.1a30 30 0 0 1-21.8-10" stroke-width="4.1"/></g></g><g transform="translate(15 89.2) scale(.71856)"><g fill="#000" fill-opacity=".2"><rect x="33" y="38.5" width="12.9" height="12.9" rx="6.4"/><rect x="57.1" y="24" width="12.9" height="14.5" rx="6.4"/><rect x="76.4" y="38.5" width="12.9" height="12.9" rx="6.4"/><rect x="166.4" y="38.5" width="12.9" height="12.9" rx="6.4"/><rect x="190.5" y="24" width="12.9" height="14.5" rx="6.4"/><rect x="209.8" y="38.5" width="12.9" height="12.9" rx="6.4"/></g></g><g transform="translate(80.3 79.8) scale(.71856)"><path d="M37 14v27c-3.7.7-11 4-11 10.5 0 8.2 7.3 10.5 11 11.7" stroke="#000" stroke-opacity=".5" stroke-width="4" stroke-linecap="round" stroke-linejoin="round"/></g></g></svg>