<svg xmlns="http://www.w3.org/2000/svg" viewBox="0 0 210 210" fill="none" shape-rendering="auto" width="512" height="512"><desc>"Face Generator" by "The Visual Team", licensed under "CC BY 4.0". / Remix of the original. - Created with dicebear.com</desc><metadata xmlns:dc="http://purl.org/dc/elements/1.1/" xmlns:cc="http://creativecommons.org/ns#" xmlns:rdf="http://www.w3.org/1999/02/22-rdf-syntax-ns#"><rdf:RDF><cc:Work><dc:title>Face Generator</dc:title><dc:creator><cc:Agent rdf:about="https://thevisual.team/"><dc:title>The Visual Team</dc:title></cc:Agent></dc:creator><dc:source>https://www.figma.com/community/file/986078800058673824</dc:source><cc:license rdf:resource="https://creativecommons.org/licenses/by/4.0/" /></cc:Work></rdf:RDF></metadata><mask id="viewboxMask"><rect width="210" height="210" rx="0" ry="0" x="0" y="0" fill="#fff" /></mask><g mask="url(#viewboxMask)"><rect fill="#da9969" width="210" height="210" x="0" y="0" /><g transform="translate(86.8 138.9) scale(.71856)"><path d="M59.8 40.1c0 17.1-13.9 4.2-31 4.2s-31 13-31-4.2a31 31 0 0 1 62 0Z" fill="#DE8383"/><path fill-rule="evenodd" clip-rule="evenodd" d="M1.4 47.3a30.4 30.4 0 0 1 28.3-19.7c12.8 0 23.8 8.2 28.3 19.7-2.5 2.3-6.9 1-12.5-.6-4.6-1.3-10-2.8-15.8-2.8-5.8 0-11.3 1.5-15.9 2.8-5.6 1.6-10 3-12.4.6Z" fill="#C06E6E"/><path fill-rule="evenodd" clip-rule="evenodd" d="M54 22H4.5A29.5 29.5 0 0 1 29.3 8.2c10.2 0 19.2 5.5 24.6 13.8Z" fill="#F9F9F9"/></g><g transform="translate(2 11) scale(.71856)"><path d="M78.2 51.4c3.1-2.5 8-7.4 17.3-7.4 8 0 14.6 5.4 15.8 7.4M179.2 51.4c3-2.5 7.9-7.4 17.2-7.4 8 0 14.7 5.4 15.9 7.4" stroke="#000" stroke-width="3.7" stroke-linecap="round"/><rect x="72" y="64.7" width="43.3" height="52.9" rx="14.4" fill="#fff"/><rect x="173" y="64.7" width="43.3" height="52.9" rx="14.4" fill="#fff"/><path d="M184 76.7a12 12 0 0 1 12.2-12l10 .1a12 12 0 0 1 11.8 12V106a12 12 0 0 1-12 12h-10a12 12 0 0 1-12-12V76.7ZM83 76.7a12 12 0 0 1 12.2-12l10 .1a12 12 0 0 1 11.8 12V106a12 12 0 0 1-12 12H95a12 12 0 0 1-12-12V76.7Z" fill="#757575"/><rect x="90.6" y="76.2" width="18.6" height="29" rx="9.3" fill="#000"/><rect x="191.6" y="76.2" width="18.6" height="29" rx="9.3" fill="#000"/></g><g transform="translate(15 89.2) scale(.71856)"></g><g transform="translate(80.3 79.8) scale(.71856)"><path d="M39 28c-3.7.8-11 4-11 10.5 0 8.2 7.3 10.6 11 11.7" stroke="#000" stroke-opacity=".5" stroke-width="4" stroke-linecap="round" stroke-linejoin="round"/></g></g></svg>