<svg xmlns="http://www.w3.org/2000/svg" viewBox="0 0 210 210" fill="none" shape-rendering="auto" width="512" height="512"><desc>"Face Generator" by "The Visual Team", licensed under "CC BY 4.0". / Remix of the original. - Created with dicebear.com</desc><metadata xmlns:dc="http://purl.org/dc/elements/1.1/" xmlns:cc="http://creativecommons.org/ns#" xmlns:rdf="http://www.w3.org/1999/02/22-rdf-syntax-ns#"><rdf:RDF><cc:Work><dc:title>Face Generator</dc:title><dc:creator><cc:Agent rdf:about="https://thevisual.team/"><dc:title>The Visual Team</dc:title></cc:Agent></dc:creator><dc:source>https://www.figma.com/community/file/986078800058673824</dc:source><cc:license rdf:resource="https://creativecommons.org/licenses/by/4.0/" /></cc:Work></rdf:RDF></metadata><mask id="viewboxMask"><rect width="210" height="210" rx="0" ry="0" x="0" y="0" fill="#fff" /></mask><g mask="url(#viewboxMask)"><rect fill="#da9969" width="210" height="210" x="0" y="0" /><g transform="translate(86.8 138.9) scale(.71856)"><path d="M58.4 36.8c0 17.1-13.9 4.2-31 4.2s-31 13-31-4.2a31 31 0 1 1 62 0Z" fill="#F9F9F9"/></g><g transform="translate(2 11) scale(.71856)"><path d="M71 65.2c4-3 10-9.2 21.7-9.2 10 0 18.4 6.8 19.9 9.2M171 65.2c4-3 10-9.2 21.7-9.2 10 0 18.4 6.8 19.9 9.2" stroke="#000" stroke-width="4.6" stroke-linecap="round"/><path d="M88.7 90a7 7 0 1 1 13.9 0v14a7 7 0 0 1-13.9 0V90ZM188.7 90a7 7 0 1 1 13.9 0v14a7 7 0 1 1-13.9 0V90Z" fill="#000"/><path d="M79.5 76.2c-.8 3.1.4 10.2 11.5 13.9M179.5 76.2c-.8 3.1.4 10.2 11.5 13.9" stroke="#000" stroke-width="4.6" stroke-linecap="round" stroke-linejoin="round"/></g><g transform="translate(15 89.2) scale(.71856)"><g fill="#F88888"><rect x="21" y="16" width="43.4" height="43.4" rx="21.7"/><rect x="194" y="16" width="43.4" height="43.4" rx="21.7"/></g></g><g transform="translate(80.3 79.8) scale(.71856)"><path d="M5.6 34.4a17 17 0 0 0 16.3 21.4h33.7A16.9 16.9 0 0 0 72 34.4C70 41.6 63.4 47 55.6 47H22c-7.8 0-14.4-5.3-16.3-12.5Z" fill="#000" fill-opacity=".2"/></g></g></svg>