<svg xmlns="http://www.w3.org/2000/svg" viewBox="0 0 210 210" fill="none" shape-rendering="auto" width="512" height="512"><desc>"Face Generator" by "The Visual Team", licensed under "CC BY 4.0". / Remix of the original. - Created with dicebear.com</desc><metadata xmlns:dc="http://purl.org/dc/elements/1.1/" xmlns:cc="http://creativecommons.org/ns#" xmlns:rdf="http://www.w3.org/1999/02/22-rdf-syntax-ns#"><rdf:RDF><cc:Work><dc:title>Face Generator</dc:title><dc:creator><cc:Agent rdf:about="https://thevisual.team/"><dc:title>The Visual Team</dc:title></cc:Agent></dc:creator><dc:source>https://www.figma.com/community/file/986078800058673824</dc:source><cc:license rdf:resource="https://creativecommons.org/licenses/by/4.0/" /></cc:Work></rdf:RDF></metadata><mask id="viewboxMask"><rect width="210" height="210" rx="0" ry="0" x="0" y="0" fill="#fff" /></mask><g mask="url(#viewboxMask)"><rect fill="#ffdfbf" width="210" height="210" x="0" y="0" /><g transform="translate(86.8 138.9) scale(.71856)"><path d="M59 19.1a31 31 0 0 1-31.5 30.6A31 31 0 0 1-3.9 19.1c0-17 4.2-14.9 31.4-14.9 25.2 0 31.5-2 31.5 15Z" fill="#DE8383"/><path fill-rule="evenodd" clip-rule="evenodd" d="M58.8 17.7H-4c.2-14.1 4.1-14 23.5-14l8 .1h7.2c18.4-.2 23.7-.2 24 14Z" fill="#F9F9F9"/><path fill-rule="evenodd" clip-rule="evenodd" d="M53.8 35.7A31.7 31.7 0 0 1 27.7 49c-11 0-20.8-5.5-26.4-13.8a42.7 42.7 0 0 1 26-7.6 42 42 0 0 1 26.5 8Z" fill="#C06E6E"/></g><g transform="translate(2 11) scale(.71856)"><circle cx="199" cy="93.3" r="11.6" fill="#161616"/><circle cx="91" cy="93.3" r="11.6" fill="#161616"/><path d="M175 68.2c4.4-3 11-9.2 24.1-9.2 11.1 0 20.4 6.8 22.1 9.2M67 68.2c4.4-3 11-9.2 24.1-9.2 11.1 0 20.4 6.8 22.1 9.2" stroke="#000" stroke-width="9.2" stroke-linecap="round"/></g><g transform="translate(15 89.2) scale(.71856)"><g fill="#F88888"><rect x="11" y="16" width="56.3" height="43.4" rx="21.7"/><rect x="191" y="16" width="56.3" height="43.4" rx="21.7"/></g></g><g transform="translate(80.3 79.8) scale(.71856)"><path d="M39 28c-3.7.8-11 4-11 10.5 0 8.2 7.3 10.6 11 11.7" stroke="#000" stroke-opacity=".5" stroke-width="4" stroke-linecap="round" stroke-linejoin="round"/></g></g></svg>