<svg xmlns="http://www.w3.org/2000/svg" viewBox="0 0 210 210" fill="none" shape-rendering="auto" width="512" height="512"><desc>"Face Generator" by "The Visual Team", licensed under "CC BY 4.0". / Remix of the original. - Created with dicebear.com</desc><metadata xmlns:dc="http://purl.org/dc/elements/1.1/" xmlns:cc="http://creativecommons.org/ns#" xmlns:rdf="http://www.w3.org/1999/02/22-rdf-syntax-ns#"><rdf:RDF><cc:Work><dc:title>Face Generator</dc:title><dc:creator><cc:Agent rdf:about="https://thevisual.team/"><dc:title>The Visual Team</dc:title></cc:Agent></dc:creator><dc:source>https://www.figma.com/community/file/986078800058673824</dc:source><cc:license rdf:resource="https://creativecommons.org/licenses/by/4.0/" /></cc:Work></rdf:RDF></metadata><mask id="viewboxMask"><rect width="210" height="210" rx="0" ry="0" x="0" y="0" fill="#fff" /></mask><g mask="url(#viewboxMask)"><rect fill="#f8b788" width="210" height="210" x="0" y="0" /><g transform="translate(86.8 138.9) scale(.71856)"><path fill-rule="evenodd" clip-rule="evenodd" d="M-13.2 18c1.4 0 2.6 1 2.7 2.4.2 3 1.3 7.6 4.1 11.4a16 16 0 0 0 13.7 6.6c6.8 0 11-3 13.7-6.6 2.8-3.8 4-8.4 4.1-11.4a2.5 2.5 0 0 1 5.1 0c.1 3 1.2 7.6 3.9 11.4 2.6 3.6 7 6.6 14 6.6s11.3-3 14-6.6c2.7-3.8 3.7-8.3 3.8-11.3a2.5 2.5 0 0 1 5 .1c0 3.8-1.3 9.4-4.7 14.2A21.3 21.3 0 0 1 48 43.5a21.3 21.3 0 0 1-20.5-12.8c-.7 1.4-1.5 2.8-2.5 4a21.2 21.2 0 0 1-17.8 8.8c-8.5 0-14.2-3.9-17.8-8.7a27.7 27.7 0 0 1-5-14.1c-.2-1.4.9-2.6 2.3-2.7Z" fill="#000"/></g><g transform="translate(2 11) scale(.71856)"><path d="M76 52.4c3.6-2.8 9-8.4 19.8-8.4a25 25 0 0 1 18 8.4M180 52.4c3.6-2.8 9-8.4 19.8-8.4a25 25 0 0 1 18 8.4" stroke="#000" stroke-width="3.7" stroke-linecap="round"/><rect x="71" y="61.5" width="49.6" height="60.6" rx="14.4" fill="#fff"/><rect x="173" y="61.5" width="49.6" height="60.6" rx="14.4" fill="#fff"/><rect x="82" y="69.7" width="30.3" height="46.9" rx="9.6" fill="#000"/><rect x="181.3" y="69.7" width="30.3" height="46.9" rx="9.6" fill="#000"/></g><g transform="translate(15 89.2) scale(.71856)"><g fill="#F88888"><rect x="21" y="16" width="43.4" height="43.4" rx="21.7"/><rect x="194" y="16" width="43.4" height="43.4" rx="21.7"/></g></g><g transform="translate(80.3 79.8) scale(.71856)"><path d="M39 28c-3.7.8-11 4-11 10.5 0 8.2 7.3 10.6 11 11.7" stroke="#000" stroke-opacity=".5" stroke-width="4" stroke-linecap="round" stroke-linejoin="round"/></g></g></svg>