<svg xmlns="http://www.w3.org/2000/svg" viewBox="0 0 560 560" fill="none" shape-rendering="auto" width="512" height="512"><desc>"Notionists" by "Zoish", licensed under "CC0 1.0". / Remix of the original. - Created with dicebear.com</desc><metadata xmlns:dc="http://purl.org/dc/elements/1.1/" xmlns:cc="http://creativecommons.org/ns#" xmlns:rdf="http://www.w3.org/1999/02/22-rdf-syntax-ns#"><rdf:RDF><cc:Work><dc:title>Notionists</dc:title><dc:creator><cc:Agent rdf:about="https://bio.link/heyzoish"><dc:title>Zoish</dc:title></cc:Agent></dc:creator><dc:source>https://heyzoish.gumroad.com/l/notionists</dc:source><cc:license rdf:resource="https://creativecommons.org/publicdomain/zero/1.0/" /></cc:Work></rdf:RDF></metadata><mask id="viewboxMask"><rect width="560" height="560" rx="0" ry="0" x="0" y="0" fill="#fff" /></mask><g mask="url(#viewboxMask)"><rect fill="#ffdfbf" width="560" height="560" x="0" y="0" /><g transform="translate(136 328)"><path d="M101.4 93.5c-2.6-12.2-2.9-25.4-21.6-18.7-2.6.9-5-3.7-3.1-6.7 4.4-7 10.7-11.9 19.6-10.9 10.6 1.3 20.9 10.6 20 19.5-.7 8.1-2 17.4-14.9 16.8Z" fill="#000"/></g><g transform="translate(246 125)"><path d="M59.8 81.5c4.5-7.8 8-15.1 12.7-21.7 3-4.2 8-7.4 13-3.1 4.9 4 0 7.2-2 10.7a227.9 227.9 0 0 0-31.3 82.3c13-2 25-1.4 30.4 11 5.6 12.7-2.5 23.2-10.6 31.8-7.3 7.7-16.6 13.5-29 7.7C42.8 184 69.6 185 65.6 167c-2.6-2.6-4.5-1.7-6.6-1.2-19.7 4.3-22.8 2.4-20.3-18.2a214.6 214.6 0 0 1 21.1-66Z" fill="#000"/></g><g transform="translate(-45 137)"><path d="M409.2 75.7c13.1.3 25.4 1 37.7 2.5 3 .3 4.9 3.3 5 6.6 0 3.4-1.8 5.7-4.8 7-11.1 4.9-22 8.3-33.7.2-6.5-4.4-8.9-8.6-4.2-16.3ZM254.7 78.4c6.2 3.3 5.2 7 2.1 10.8-6.5 8-28.2 10-36.4 3.5-4.7-3.8-7.3-8.6-4.4-14.4 3-6 8.2-5 13-2.5 8 4 16.4 3 25.7 2.6Z" fill="#000"/></g><g transform="translate(-45 137)"></g><g transform="translate(119 114)"><path d="M56.8 30.9c9.5-10.6 21.8-16.2 31.6-25C93 1.8 98 3 101.8 7.5c3.8 4.3 7.3 8.3 2.7 14.5a83 83 0 0 1-42.7 28.3C47.4 55 32 56.5 17 59.3c-4.5.9-10.2 3.3-11.5-3.6-1.2-6.6 3.2-10 9.5-11.2 14.2-2.8 28.4-5.2 41.8-13.6ZM289.9 29c11.3 2 18 11 27.8 14.2 3.8 1.2 8.4 4.7 6.6 9.5-2.1 5.8-8 4.3-12.2 3a450.2 450.2 0 0 1-39.2-14.5c-12.8-5.6-25.1-12.4-37.4-19-6-3.2-11.6-7.8-7.4-15.2 4.2-7.3 11-9.5 18.3-3.7C259.4 13.8 275 19.8 290 29Z" fill="#000"/></g></g></svg>