<svg xmlns="http://www.w3.org/2000/svg" viewBox="0 0 560 560" fill="none" shape-rendering="auto" width="512" height="512"><desc>"Notionists" by "Zoish", licensed under "CC0 1.0". / Remix of the original. - Created with dicebear.com</desc><metadata xmlns:dc="http://purl.org/dc/elements/1.1/" xmlns:cc="http://creativecommons.org/ns#" xmlns:rdf="http://www.w3.org/1999/02/22-rdf-syntax-ns#"><rdf:RDF><cc:Work><dc:title>Notionists</dc:title><dc:creator><cc:Agent rdf:about="https://bio.link/heyzoish"><dc:title>Zoish</dc:title></cc:Agent></dc:creator><dc:source>https://heyzoish.gumroad.com/l/notionists</dc:source><cc:license rdf:resource="https://creativecommons.org/publicdomain/zero/1.0/" /></cc:Work></rdf:RDF></metadata><mask id="viewboxMask"><rect width="560" height="560" rx="0" ry="0" x="0" y="0" fill="#fff" /></mask><g mask="url(#viewboxMask)"><rect fill="#b6e3f4" width="560" height="560" x="0" y="0" /><g transform="translate(136 328)"><path d="M83 85.8c-2.4 17.7 16.1 32.5 32.4 26-4.3-15.8-20.8-17.4-32.4-26Z" fill="#fff"/><path fill-rule="evenodd" clip-rule="evenodd" d="M72.3 102.8c12.4 23.4 36 29.9 61.7 16.3 10.5-6.4 14.9-16.6 18.7-26.1a27.3 27.3 0 0 0-1.5-24.2C137.2 43 120 42.3 99.3 46.2c-22.5 4.3-37.8 36.4-27 56.6Zm43.1 9c-16.3 6.5-34.8-8.3-32.4-26 3.7 2.7 7.8 4.7 11.9 6.7 8.9 4.3 17.6 8.5 20.5 19.3Z" fill="#000"/><path d="M67 37c8.2 3.7 7.7 9.3 4.2 15-2.6 4.5-6.5 7.2-11.7 4-4.8-3-3.7-7.1-1-11 2.2-3 3-7.3 8.5-8Z" fill="#000"/></g><g transform="translate(246 125)"><path d="M27 199.5c-7.6-4.6-16.3-6-19.8-14.5-1.8-4.5-3.5-9-1.4-13.5 3-6.4 8.9-8.5 15-6 8.6 3.7 1.8 9 .5 13.6C45 199 75 190.2 95.3 176c7.1-5 4.4-10.5-1.6-14.1-11.2-6.7-21.4-15.5-36.4-13.7 2.5-12.3 10.3-12.6 17-11.2A67.4 67.4 0 0 1 108 154c10.4 10.2 9.5 23.6-1.5 33.3-16 14.2-35.7 17.2-55.9 16-7.4-.3-15.4.3-23.5-3.7Z" fill="#000"/></g><g transform="translate(-45 137)"><path d="M215.1 76.6c5-12 9-29.4 24.1-22.5 20.7 9.4 13.9 30.7 9.7 47.4-1.6 6.3-14.5 15.9-18.3 14.3-16.3-6.8-19.2-21.7-15.5-39.2ZM442 113.4c-8.6 7.5-17 7.6-22.2-1.5-9-16-8.6-32.8 3.3-47.2 2.5-3 13.8-3.6 16.3-1 14 15 14.6 31.8 2.6 49.7Z" fill="#000"/></g><g transform="translate(-45 137)"></g><g transform="translate(119 114)"><path d="M104.9 38.7C82.4 47 60.2 43 38.3 43c-3 0-6.3-2.2-9.2-4-2.7-1.5-4.4-4-3-7.4 1.5-3.7 4-5 8-4.5 27.2 3.7 53.7.8 79.9-7 5-1.6 13.3-8 16.2 1.6 3 10.2-6.8 10.8-13.4 13l-12 3.9ZM260.5 33.1c-7.2 2.7-13.5 5.3-19.9 7.6-2.4.8-5.1.9-6.8-1.8-1.6-2.4-1-4.4.5-7 13.4-22 56.2-24.9 71-4.4 1.9 2.4 3.3 5 4.2 7.8 1.3 4.1 2.4 9.2-2.2 11.5-4.3 2.2-7.7-1.1-10.7-4.5-14-15.5-17-16.3-36-9.2Z" fill="#000"/></g></g></svg>