<svg xmlns="http://www.w3.org/2000/svg" viewBox="0 0 560 560" fill="none" shape-rendering="auto" width="512" height="512"><desc>"Notionists" by "Zoish", licensed under "CC0 1.0". / Remix of the original. - Created with dicebear.com</desc><metadata xmlns:dc="http://purl.org/dc/elements/1.1/" xmlns:cc="http://creativecommons.org/ns#" xmlns:rdf="http://www.w3.org/1999/02/22-rdf-syntax-ns#"><rdf:RDF><cc:Work><dc:title>Notionists</dc:title><dc:creator><cc:Agent rdf:about="https://bio.link/heyzoish"><dc:title>Zoish</dc:title></cc:Agent></dc:creator><dc:source>https://heyzoish.gumroad.com/l/notionists</dc:source><cc:license rdf:resource="https://creativecommons.org/publicdomain/zero/1.0/" /></cc:Work></rdf:RDF></metadata><mask id="viewboxMask"><rect width="560" height="560" rx="0" ry="0" x="0" y="0" fill="#fff" /></mask><g mask="url(#viewboxMask)"><rect fill="#b6e3f4" width="560" height="560" x="0" y="0" /><g transform="translate(136 328)"><path d="M80.7 65.4c-1.1-4.6-2.8-8.8 2-10.8C86.7 53 90 55 93 58a76 76 0 0 0 34.4 21c27 6.7 51-.5 71.2-19.9 3.4-3.2 6.7-6.5 10.2-9.5 2.4-2 5.1-3.2 8-.7 3 2.7 1.5 5.4-.1 8-13.6 21.4-31.7 35.8-58.1 37-8 .3-16.1 1-24.1.8-22.4-.6-38-14.3-53.8-29.3ZM49.3 54.5c.4-15.5 8-25.4 19.7-33 4.7-3 9.4-4 14.5-2.7 3.3 1 6.5 2.7 7 6.6.7 4.3-2.4 5.6-6 6.8a30.5 30.5 0 0 0-21.4 22.9c-1 4.3-2 9-7 9.4-5.9.6-5.2-5.4-6.8-10ZM230.4 35c0-8.8 5.4-7.4 9.7-6 7.2 2.3 16 18.6 14.7 26.5-.4 2.5-.4 5.3-3.3 6.4-3.4 1.3-5.8-.4-7.5-3.1a710 710 0 0 1-13.6-23.9Z" fill="#000"/></g><g transform="translate(246 125)"><path d="M41.2 197.6c-5.4-4.8-10.2-9.4-5.5-15.8 5-6.7 9.8.1 14.7 1.4 3.2.9 5.6 4.4 9.3 3.3 6.5-1.8 14-2.5 15-11.4.8-8.5-6-10.5-11.7-13.1-4.4-2-13 1-11.3-8 1.5-8.3 9.1-7.7 15.6-7.1a25 25 0 0 1 24 25c.5 16.2-8.4 28.5-23.3 30-8.7 1-18 2-26.8-4.3Z" fill="#000"/></g><g transform="translate(-45 137)"><path d="M419.6 111c-4.2-9.5-9.9-15.2-19.8-15.7-6-.3-7-5.1-8.9-9.8 2-1.5 3.5-3.7 5.3-3.8 21.1-1.7 42.4-1.8 63.5-.1 6 .4 9.3 8 3.2 10.4-10 4-12.5 13.2-18.5 19.8-8.2 9-15.2 9.1-24.8-.8ZM228.6 81.4c12.2.7 23.1 1 34 2 3.6.3 8 1.8 8 6.7 0 5.6-4.6 5.2-8.3 5.1-6.3 0-9.7 2.7-12.5 8.6-3.4 7.4-6.9 15.3-18 14.8-10.5-.5-15.1-7.2-18.1-15.2-2.2-5.7-5-8.4-11-8.2-3.4.1-7.1-.2-7.5-4.9-.4-5 3-6 7-7.2a67.9 67.9 0 0 1 26.4-1.7Z" fill="#000"/></g><g transform="translate(-45 137)"></g><g transform="translate(119 114)"><path d="M53.5 37.6a79.2 79.2 0 0 0 27.3-19.8c2.7-3 6.1-5.7 9.9-5 6.7 1.1 16.2-1 18.8 7.5 2.1 7-5.2 10.5-10.3 14.4-13.8 10.5-28.2 19-46.6 16.7-4.6-.5-9.7.2-11-6.2 1.6-5.5 7.3-4.9 11.9-7.6ZM251.4 15c8.5-1.7 12.6 4.1 17.1 8.2 8.1 7.4 14.7 16.4 26 19.8 3.3 1 5.7 4 4 8-1.5 3.5-4 5.7-8 4.6-14.3-3.8-29.2-5.9-40.6-16.8-10-9.6-10.2-14 1.5-23.7Z" fill="#000"/></g></g></svg>