<svg xmlns="http://www.w3.org/2000/svg" viewBox="0 0 128 128" fill="none" shape-rendering="auto" width="512" height="512"><desc>"Croodles - Doodle your face" by "vijay verma", licensed under "CC BY 4.0". / Remix of the original. - Created with dicebear.com</desc><metadata xmlns:dc="http://purl.org/dc/elements/1.1/" xmlns:cc="http://creativecommons.org/ns#" xmlns:rdf="http://www.w3.org/1999/02/22-rdf-syntax-ns#"><rdf:RDF><cc:Work><dc:title>Croodles - Doodle your face</dc:title><dc:creator><cc:Agent rdf:about="https://vijayverma.co/"><dc:title>vijay verma</dc:title></cc:Agent></dc:creator><dc:source>https://www.figma.com/community/file/966199982810283152</dc:source><cc:license rdf:resource="https://creativecommons.org/licenses/by/4.0/" /></cc:Work></rdf:RDF></metadata><mask id="viewboxMask"><rect width="128" height="128" rx="0" ry="0" x="0" y="0" fill="#fff" /></mask><g mask="url(#viewboxMask)"><rect fill="#ffdfbf" width="128" height="128" x="0" y="0" /><g transform="translate(7 4)"><g stroke="#000" stroke-width="3" stroke-linecap="round" stroke-linejoin="round"><path d="M26.8 19.1c1.3 1.2 4.7 2.4 8.6 1.7 3.5-.5 5-2 6-3.9M70 16.1c2 2.6 5.4 3.4 7.6 3.6 2.2 0 5-.8 7.2-2M4 20.5 17.7 29M48.2 32.8A31.5 31.5 0 0 1 68.7 31M96.9 28.7c2.5-1.4 10.6-7.8 13.1-9.7"/><path d="M22.6 46c-8.3-3.1-7.6-11.4-3.7-17.2 3-3.8 22.8-2.2 27.2 1.8 4.2 3.8 2.3 11.8-1.8 14.3-3.4 2-16.2 3.1-21.7 1ZM94.4 26.7c-3.6-1.2-18.2-1-24 2.6-3.8 2.5-6.5 14.7 3.6 16 4.6.7 14.9 0 18.7-1.8 8.2-3.9 6.8-15.2 1.7-16.8Z"/><path d="M29.7 35.3c1-2 3.2-2.6 4.1-2.6 3.1 0 4 1.3 4.7 2.1M78 35.3c1-2 3.1-2.6 4-2.6 3.2 0 4 1.3 4.7 2.1"/></g></g><g transform="translate(47 46)"><path d="M13.7 15c3.9 2.1 11 11.9 10.2 17.3-.5 3.6-8.5 2.5-12.9 1.7" stroke="#000" stroke-width="3" stroke-linecap="round" stroke-linejoin="round"/></g><g transform="translate(30 93)"><g stroke="#000" stroke-width="3" stroke-linecap="round" stroke-linejoin="round"><path d="M22.2 21.5c-.5.5-3-7.1-4.1-11l7.4 1.2-3.3 9.8ZM49.4 20.4c-.7.3-3-6-4.3-10l6-2c-1 3.1-.6 11.6-1.7 12Z"/><path d="M13 4.7c3 6.2 12.4 7.7 24 6.4C47.4 10 53.4 6.7 56.4 3"/></g></g></g></svg>