<svg xmlns="http://www.w3.org/2000/svg" viewBox="0 0 128 128" fill="none" shape-rendering="auto" width="512" height="512"><desc>"Croodles - Doodle your face" by "vijay verma", licensed under "CC BY 4.0". / Remix of the original. - Created with dicebear.com</desc><metadata xmlns:dc="http://purl.org/dc/elements/1.1/" xmlns:cc="http://creativecommons.org/ns#" xmlns:rdf="http://www.w3.org/1999/02/22-rdf-syntax-ns#"><rdf:RDF><cc:Work><dc:title>Croodles - Doodle your face</dc:title><dc:creator><cc:Agent rdf:about="https://vijayverma.co/"><dc:title>vijay verma</dc:title></cc:Agent></dc:creator><dc:source>https://www.figma.com/community/file/966199982810283152</dc:source><cc:license rdf:resource="https://creativecommons.org/licenses/by/4.0/" /></cc:Work></rdf:RDF></metadata><mask id="viewboxMask"><rect width="128" height="128" rx="0" ry="0" x="0" y="0" fill="#fff" /></mask><g mask="url(#viewboxMask)"><rect fill="#ffdfbf" width="128" height="128" x="0" y="0" /><g transform="translate(7 4)"><path fill-rule="evenodd" clip-rule="evenodd" d="M36.8 29v-.2c0-.8-.7-1.5-1.5-1.4-1.4 0-3.5.5-5.3 1.4a7.8 7.8 0 0 0-4.3 5.4c-.5 3 0 5.3 1 6.9 1 1.5 2.4 2.3 3.1 2.7a13.6 13.6 0 0 0 5.4.6c1.2 0 2.5-.4 3.6-1.1 1.1-.8 2-2 2.3-3.6a12 12 0 0 0-.7-7 7 7 0 0 0-3-3.6l-.6-.1Zm-7.3 4a4.1 4.1 0 0 0-.9 2.2l.4-1 .5-1.1Zm1.3 4.4-.1.3.2.2v-.5Zm3-2.1v.5-.5Zm-1.8-3c.7-.2 1.6.1 2 .9l-.8.3.7-.3a4.6 4.6 0 0 1 .1.2 6.9 6.9 0 0 1 .4 1.5c0 .3 0 .8-.2 1.2-.5 1-1.4 1.3-2 1.3-.8 0-2-.2-2.4-1.4a2 2 0 0 1 0-1.5 2 2 0 0 1 1-1l.3-.2c.1-.4.4-.7.9-1Zm-.6 2.8ZM86 27V27c0-.9-.7-1.5-1.6-1.4-1.3 0-3.4.4-5.2 1.4a7.8 7.8 0 0 0-4.3 5.4c-.6 3 0 5.2 1 6.8 1 1.6 2.4 2.4 3.1 2.8a13.6 13.6 0 0 0 5.4.6c1.2-.1 2.5-.4 3.6-1.2 1.1-.7 2-2 2.3-3.6a12 12 0 0 0-.7-6.9 7 7 0 0 0-3-3.6l-.6-.1Zm-7.4 4.1a4.1 4.1 0 0 0-.8 2.1l.4-1c0-.4.2-.7.4-1Zm1.4 4.4-.2.3.3.2-.1-.5Zm3-2.1-.1.2v.2l.1-.4Zm.9 4a1.5 1.5 0 1 1 3 0 1.5 1.5 0 0 1-3 0Zm-2.7-7c.7-.3 1.6 0 2 .8l-.8.4.7-.4a4.6 4.6 0 0 1 .1.3 6.8 6.8 0 0 1 .4 1.5c0 .2 0 .7-.3 1.2-.4 1-1.3 1.3-2 1.3s-1.8-.3-2.3-1.4a2 2 0 0 1 0-1.5 2 2 0 0 1 1-1l.3-.2c.1-.4.4-.8.9-1Zm-.6 2.8Z" fill="#000"/><path d="M27.5 21.8c1-1.3 3.8-3.4 6-2M78 18c1-1.3 4.2-1.4 4.7 0" stroke="#000" stroke-width="3" stroke-linecap="round" stroke-linejoin="round"/></g><g transform="translate(47 46)"><path d="M2 2.7c3.5 0 7.7 5.7 8.1 14.8.7 14.7-4.2 19.4 0 27 2.7 5 17.8 4.7 21.9-3.6 3.2-6.5-3-12-6.6-20.7-3.5-8.3-5.7-13.4-2-18.2" stroke="#000" stroke-width="3" stroke-linecap="round" stroke-linejoin="round"/></g><g transform="translate(30 93)"><g stroke="#000" stroke-width="3" stroke-linecap="round" stroke-linejoin="round"><path d="M16 6.6c5.3 2.5 13.5 8 22.7 7.7 11-.3 14.6-6.1 16-9.3"/><path d="M34.3 6.3c-3-1.9-8.6 1.8-10 4.2 1.6 5.5 7.4 9.2 14 9.2 7.3 0 11.3-6.3 12-8.5h0c-.7-1.2-1.8-3.3-4.8-4.9-3.7-2-6.1 6-6.8 6-.7 0-.6-3.6-4.4-6Z"/></g></g></g></svg>