<svg xmlns="http://www.w3.org/2000/svg" viewBox="0 0 128 128" fill="none" shape-rendering="auto" width="512" height="512"><desc>"Croodles - Doodle your face" by "vijay verma", licensed under "CC BY 4.0". / Remix of the original. - Created with dicebear.com</desc><metadata xmlns:dc="http://purl.org/dc/elements/1.1/" xmlns:cc="http://creativecommons.org/ns#" xmlns:rdf="http://www.w3.org/1999/02/22-rdf-syntax-ns#"><rdf:RDF><cc:Work><dc:title>Croodles - Doodle your face</dc:title><dc:creator><cc:Agent rdf:about="https://vijayverma.co/"><dc:title>vijay verma</dc:title></cc:Agent></dc:creator><dc:source>https://www.figma.com/community/file/966199982810283152</dc:source><cc:license rdf:resource="https://creativecommons.org/licenses/by/4.0/" /></cc:Work></rdf:RDF></metadata><mask id="viewboxMask"><rect width="128" height="128" rx="0" ry="0" x="0" y="0" fill="#fff" /></mask><g mask="url(#viewboxMask)"><rect fill="#ffdfbf" width="128" height="128" x="0" y="0" /><g transform="translate(7 4)"><g stroke="#000" stroke-width="3" stroke-linecap="round" stroke-linejoin="round"><path d="M42.8 24c-6.4.3-17.8 3.1-17.8 11.4C25 47.8 34.7 50 38.2 50c3 0 9.2-1.6 11.5-4 2.3-2.6 3.2-12.6 1.6-15.8-1.1-2.2-3.2-5-7-5"/><path d="M30.7 32.3c-.4 0-1.2.2-1 .9.3.6 1.4.5 1.6 0 .3-.6-.2-1.8-.2-1.8M78.6 42c.3.6.5.4.7 0"/><path d="M80.3 30.4c-3 .8-8.6 3.8-7.4 9.9 1.3 6 5.8 7.7 10.4 6.4 4.5-1.4 7-7.6 6.4-10.3-1-3.4-5.7-6-9.4-5M28.7 16.7c2.1 1.6 8 4.3 14.3 2.4 6.3-2 11.2-7.5 12.8-10.1M78.9 14.5c-1 1 .2 4.7 2.4 5.5 2.2.9 3.6 1.5 5.8 1.5"/></g></g><g transform="translate(47 46)"><path d="M23.3 22.4c.7.8 2.6 5.5-5.6 6.5-7 .8-7.1-3.7-7.1-5.3" stroke="#000" stroke-width="3" stroke-linecap="round" stroke-linejoin="round"/></g><g transform="translate(30 93)"><path d="M17 12a88 88 0 0 0 36.2 0" stroke="#000" stroke-width="3" stroke-linecap="round" stroke-linejoin="round"/></g></g></svg>