<svg xmlns="http://www.w3.org/2000/svg" viewBox="0 0 128 128" fill="none" shape-rendering="auto" width="512" height="512"><desc>"Croodles - Doodle your face" by "vijay verma", licensed under "CC BY 4.0". / Remix of the original. - Created with dicebear.com</desc><metadata xmlns:dc="http://purl.org/dc/elements/1.1/" xmlns:cc="http://creativecommons.org/ns#" xmlns:rdf="http://www.w3.org/1999/02/22-rdf-syntax-ns#"><rdf:RDF><cc:Work><dc:title>Croodles - Doodle your face</dc:title><dc:creator><cc:Agent rdf:about="https://vijayverma.co/"><dc:title>vijay verma</dc:title></cc:Agent></dc:creator><dc:source>https://www.figma.com/community/file/966199982810283152</dc:source><cc:license rdf:resource="https://creativecommons.org/licenses/by/4.0/" /></cc:Work></rdf:RDF></metadata><mask id="viewboxMask"><rect width="128" height="128" rx="0" ry="0" x="0" y="0" fill="#fff" /></mask><g mask="url(#viewboxMask)"><rect fill="#ffd5dc" width="128" height="128" x="0" y="0" /><g transform="translate(7 4)"><path d="M35.5 48c-.7-.6-5.1-2.3-7.4-6.2-2.3-3.8-2.5-7.7 0-9.3 1.6-1.2 5.1.6 7.4 2.2M36.4 34c1.5-1.6 4.1-3 6.7-1.6 1.8 1 1.6 7.1 0 9.4-1.2 1.9-5.2 5-6.7 6M77.7 33.3c-2.2-2.1-7.1-5.4-9.2-1.7-2.6 4.6 5.6 13 10.2 14.8M79.8 47c2.2-1.7 7-5.4 7.8-6.6 1-1.5 2.8-8 0-10.6-2.8-2.6-8.6 1-8.6 5.2M26 18.3c.6-1.4 3-4.2 7-3.7 5.2.6 6.2 1.5 7.4 3.7M72.2 16.2c.5-1.7 3-4.8 8.2-4 5.2.6 7 3.5 7.3 4.9" stroke="#000" stroke-width="3" stroke-linecap="round" stroke-linejoin="round"/></g><g transform="translate(47 46)"><path d="M24.3 5c-.8 5.3-1.2 16.3.3 22.3 3.6 14.1-1.5 17.5-3.2 17.5-5.3 0-6.5-4.7-7.7-18-1.5-16.5-1.6-16.3-3.7-21" stroke="#000" stroke-width="3" stroke-linecap="round" stroke-linejoin="round"/></g><g transform="translate(30 93)"><path d="M13.6 13.8c4.7 4 13.5 6.5 22.5 5.4A25 25 0 0 0 54.9 8.5M10 16.5c1.6-1 4.8-3.7 5-6.6M53.1 6c1 1.6 3.8 4.8 6.6 5" stroke="#000" stroke-width="3" stroke-linecap="round" stroke-linejoin="round"/></g></g></svg>