<svg xmlns="http://www.w3.org/2000/svg" viewBox="0 0 128 128" fill="none" shape-rendering="auto" width="512" height="512"><desc>"Croodles - Doodle your face" by "vijay verma", licensed under "CC BY 4.0". / Remix of the original. - Created with dicebear.com</desc><metadata xmlns:dc="http://purl.org/dc/elements/1.1/" xmlns:cc="http://creativecommons.org/ns#" xmlns:rdf="http://www.w3.org/1999/02/22-rdf-syntax-ns#"><rdf:RDF><cc:Work><dc:title>Croodles - Doodle your face</dc:title><dc:creator><cc:Agent rdf:about="https://vijayverma.co/"><dc:title>vijay verma</dc:title></cc:Agent></dc:creator><dc:source>https://www.figma.com/community/file/966199982810283152</dc:source><cc:license rdf:resource="https://creativecommons.org/licenses/by/4.0/" /></cc:Work></rdf:RDF></metadata><mask id="viewboxMask"><rect width="128" height="128" rx="0" ry="0" x="0" y="0" fill="#fff" /></mask><g mask="url(#viewboxMask)"><rect fill="#ffd5dc" width="128" height="128" x="0" y="0" /><g transform="translate(7 4)"><g stroke="#000" stroke-linecap="round" stroke-linejoin="round"><path d="M34 27.7c7-2.6 13.2 5.2 13.2 10.9 0 6.8-5.3 12.5-10.3 12.5-5 0-9.9-5.7-9.9-12.5 0-5.7 4-9.8 7.8-11.3M77.4 23.2c6.6-2.6 11 5.4 11 11 0 6.8-3.8 12.6-8.5 12.6-4.6 0-9-4.7-9-12.2C71 27 74.5 24.4 78 23" stroke-width="3"/><path d="M40.1 40.5s0 0 0 0M82 38.2s0 0 0 0" stroke-width="6"/><path d="M28.2 19.3c2.8-3.2 10-7.9 17-1.6M66.2 15.1c4.3-4.2 14.4-10.4 20-1.8" stroke-width="3"/></g></g><g transform="translate(47 46)"><path d="M15.3 18c-4 .9-7.2 6.8-4 10 4 4 12.3 4.7 13.1 0 .7-3.9-1.3-6-2.7-6.7" stroke="#000" stroke-width="3" stroke-linecap="round" stroke-linejoin="round"/></g><g transform="translate(30 93)"><path d="M22 16.7c7.2 3.9 23.1 2 25.4-7 .2-1 0-2.7-1.2-2.7" stroke="#000" stroke-width="3" stroke-linecap="round" stroke-linejoin="round"/></g></g></svg>