<svg xmlns="http://www.w3.org/2000/svg" viewBox="0 0 128 128" fill="none" shape-rendering="auto" width="512" height="512"><desc>"Croodles - Doodle your face" by "vijay verma", licensed under "CC BY 4.0". / Remix of the original. - Created with dicebear.com</desc><metadata xmlns:dc="http://purl.org/dc/elements/1.1/" xmlns:cc="http://creativecommons.org/ns#" xmlns:rdf="http://www.w3.org/1999/02/22-rdf-syntax-ns#"><rdf:RDF><cc:Work><dc:title>Croodles - Doodle your face</dc:title><dc:creator><cc:Agent rdf:about="https://vijayverma.co/"><dc:title>vijay verma</dc:title></cc:Agent></dc:creator><dc:source>https://www.figma.com/community/file/966199982810283152</dc:source><cc:license rdf:resource="https://creativecommons.org/licenses/by/4.0/" /></cc:Work></rdf:RDF></metadata><mask id="viewboxMask"><rect width="128" height="128" rx="0" ry="0" x="0" y="0" fill="#fff" /></mask><g mask="url(#viewboxMask)"><rect fill="#ffdfbf" width="128" height="128" x="0" y="0" /><g transform="translate(7 4)"><g stroke="#000" stroke-width="3" stroke-linecap="round" stroke-linejoin="round"><path d="M20.8 12.3c1.7-1.3 6.2-2.6 11.3-2 4.5.7 6.4 2.3 7.7 4.3M72.9 14.2c2-3 5.7-3.7 8-4 2.4-.2 5.1-.2 7.3.4M4 21.2l13.7 6.5M48.2 31.5a31.5 31.5 0 0 1 20.5-1.8M96.9 27.3a193 193 0 0 0 13.1-8.6M24.6 49.9c-5-3.1-10.5-15.7-5.9-22.7 5.3-7.8 23.8-8.7 28.1 2.4 2.6 6.5 1.6 12.7 1 14.3-1.9 4.5-10.3 13.9-23.2 6ZM95.5 26.5c-5.6-8-21-8.3-25.4.4-1.9 3.7-3 14.2 4.4 20.2 3.8 3 18 8.2 22.8-5.2 2.2-6.3.4-12.2-1.8-15.4Z"/><path d="M34.4 29.8c-.4.2-1.1 1-.8 1.8.4 1.2 3.4 2.5 3.5.9.1-1.7-.5-2.3-1.2-1.6M81 27.7c-.6.5-1.7 1.8-1 2.3 1 .6 4.2 2.3 4 0-.3-1.9-1.1-1.7-1.5-1.4l-.9.7"/></g></g><g transform="translate(47 46)"><path d="M24.3 5c-.8 5.3-1.2 16.3.3 22.3 3.6 14.1-1.5 17.5-3.2 17.5-5.3 0-6.5-4.7-7.7-18-1.5-16.5-1.6-16.3-3.7-21" stroke="#000" stroke-width="3" stroke-linecap="round" stroke-linejoin="round"/></g><g transform="translate(30 93)"><g stroke="#000" stroke-width="3" stroke-linecap="round" stroke-linejoin="round"><path d="M11 11.2c3 1.1 9.3 3 24.3 1.7C54 11.2 54.3 9.6 58.7 7"/><path d="M35.7 7.6A36.7 36.7 0 0 0 17 12.7c15.7 12.4 34.8 0 34.8-2.6-2.4-1-2.4-3.3-16-2.5Z"/></g></g></g></svg>