<svg xmlns="http://www.w3.org/2000/svg" viewBox="0 0 128 128" fill="none" shape-rendering="auto" width="512" height="512"><desc>"Croodles - Doodle your face" by "vijay verma", licensed under "CC BY 4.0". / Remix of the original. - Created with dicebear.com</desc><metadata xmlns:dc="http://purl.org/dc/elements/1.1/" xmlns:cc="http://creativecommons.org/ns#" xmlns:rdf="http://www.w3.org/1999/02/22-rdf-syntax-ns#"><rdf:RDF><cc:Work><dc:title>Croodles - Doodle your face</dc:title><dc:creator><cc:Agent rdf:about="https://vijayverma.co/"><dc:title>vijay verma</dc:title></cc:Agent></dc:creator><dc:source>https://www.figma.com/community/file/966199982810283152</dc:source><cc:license rdf:resource="https://creativecommons.org/licenses/by/4.0/" /></cc:Work></rdf:RDF></metadata><mask id="viewboxMask"><rect width="128" height="128" rx="0" ry="0" x="0" y="0" fill="#fff" /></mask><g mask="url(#viewboxMask)"><rect fill="#ffd5dc" width="128" height="128" x="0" y="0" /><g transform="translate(7 4)"><path d="M33 35.6c-1.8-1.7.5-4.4 2.5-3.4 2.5 1.3 3.4 4.3 1.2 6.5s-7.2.8-7.5-4.5c-.3-5.3 6.5-9.2 10-3 3.3 6.3 2.2 11.9-5.2 11.9-5.1 0-7.3-3.6-7.9-7-1-6.7 2.5-13.6 9.7-12 4.5 1 9.7 4 8.8 13.3-1 9.3-6 10.3-12.3 9.2-7.7-1.3-9.8-8.2-7.3-16M78.5 35.6c-1.9-1.7.4-4.4 2.4-3.4 2.5 1.3 3.4 4.3 1.2 6.5-2.1 2.2-7.1.8-7.5-4.5-.3-5.3 6.5-9.2 10-3 3.3 6.3 2.2 11.9-5.2 11.9-5.1 0-7.3-3.6-7.8-7-1-6.7 2.4-13.6 9.7-12 4.4 1 9.6 4 8.7 13.3-1 9.3-6 10.3-12.3 9.2-7.7-1.3-9.8-8.2-7.3-16M29.8 15.9c3 2.2 8.8 2.6 12 1M72.2 16.8c3.6 1 9.2-.3 11.8-2.8" stroke="#000" stroke-width="3" stroke-linecap="round" stroke-linejoin="round"/></g><g transform="translate(47 46)"><path d="M21.7 10c5 4 12 23 6 29S19 34.3 14 34.3c-5.1 0-9 6-8.5-1 .4-5.6 4-5.5 4.7-5.8" stroke="#000" stroke-width="3" stroke-linecap="round" stroke-linejoin="round"/></g><g transform="translate(30 93)"><path d="M43.8 10.4c-8 1.5-20.5 1-22.4 2.4-3.4 3.7 16.2 1.3 20.5.8 8.8-1 11.7-4.9 2-3.2Z" stroke="#000" stroke-width="3" stroke-linecap="round" stroke-linejoin="round"/></g></g></svg>