<svg xmlns="http://www.w3.org/2000/svg" viewBox="0 0 128 128" fill="none" shape-rendering="auto" width="512" height="512"><desc>"Croodles - Doodle your face" by "vijay verma", licensed under "CC BY 4.0". / Remix of the original. - Created with dicebear.com</desc><metadata xmlns:dc="http://purl.org/dc/elements/1.1/" xmlns:cc="http://creativecommons.org/ns#" xmlns:rdf="http://www.w3.org/1999/02/22-rdf-syntax-ns#"><rdf:RDF><cc:Work><dc:title>Croodles - Doodle your face</dc:title><dc:creator><cc:Agent rdf:about="https://vijayverma.co/"><dc:title>vijay verma</dc:title></cc:Agent></dc:creator><dc:source>https://www.figma.com/community/file/966199982810283152</dc:source><cc:license rdf:resource="https://creativecommons.org/licenses/by/4.0/" /></cc:Work></rdf:RDF></metadata><mask id="viewboxMask"><rect width="128" height="128" rx="0" ry="0" x="0" y="0" fill="#fff" /></mask><g mask="url(#viewboxMask)"><rect fill="#ffdfbf" width="128" height="128" x="0" y="0" /><g transform="translate(7 4)"><g stroke="#000" stroke-width="3" stroke-linecap="round" stroke-linejoin="round"><path d="M34.8 27.8c3.3.6 11-.1 14.7-7.9M65.2 15c.5 2.7 2.7 8.5 7.4 10.8 4.6 2.3 8.8 2.3 10.3 2M21.2 40.5a134 134 0 0 1 27.1-5M21 42.7c6.8-1.3 20.5-4.5 25.2-5.2M67.3 34.8c7.1-1.3 22.3 2.4 26.3 4.1"/><path d="M66.7 35.2c7.1-1.2 20.6 3.7 24.6 5.5"/><path d="M66.5 36.1c7-1.3 21.6 4.9 25.6 6.7"/><path d="M66.5 37.5c7-1.3 21.6 5 25.6 6.9M25 41.3c6.5-2.3 20.5-6.6 24-5.2M24 45c6.6-2.3 20.3-6.2 24-7"/></g></g><g transform="translate(47 46)"><path d="M21.7 10c5 4 12 23 6 29S19 34.3 14 34.3c-5.1 0-9 6-8.5-1 .4-5.6 4-5.5 4.7-5.8" stroke="#000" stroke-width="3" stroke-linecap="round" stroke-linejoin="round"/></g><g transform="translate(30 93)"><path d="M34 10c-7.2 0-14-1.2-17-2 1 2.6 6.4 8.3 17 8.3 12 0 16.5-5.5 18.3-8.3-6 1.8-11 2-18.3 2Z" stroke="#000" stroke-width="3" stroke-linecap="round" stroke-linejoin="round"/></g></g></svg>