<svg xmlns="http://www.w3.org/2000/svg" viewBox="0 0 14 14" fill="none" shape-rendering="crispEdges" width="512" height="512"><desc>"Pixel Art Neutral" by "Florian Körner", licensed under "CC0 1.0". / Remix of the original. - Created with dicebear.com</desc><metadata xmlns:dc="http://purl.org/dc/elements/1.1/" xmlns:cc="http://creativecommons.org/ns#" xmlns:rdf="http://www.w3.org/1999/02/22-rdf-syntax-ns#"><rdf:RDF><cc:Work><dc:title>Pixel Art Neutral</dc:title><dc:creator><cc:Agent rdf:about="https://dicebear.com"><dc:title>Florian Körner</dc:title></cc:Agent></dc:creator><dc:source>https://www.figma.com/community/file/1198754108850888330</dc:source><cc:license rdf:resource="https://creativecommons.org/licenses/zero/1.0/" /></cc:Work></rdf:RDF></metadata><mask id="viewboxMask"><rect width="14" height="14" rx="0" ry="0" x="0" y="0" fill="#fff" /></mask><g mask="url(#viewboxMask)"><rect fill="#e0b687" width="14" height="14" x="0" y="0" /><g transform="translate(-1 -2)"><path d="M6 5H5v2h2V6H6V5ZM11 5h-1v2h2V6h-1V5Z" fill="#fff"/><path fill="#76778b" d="M5 6h1v1H5zM10 6h1v1h-1z"/></g><g transform="translate(-1 -2)"></g><g transform="translate(-1)"><path d="M7 9h2v1H7V9ZM7 10v1H6v-1h1ZM9 10v1h1v-1H9Z" fill="#c98276"/></g></g></svg>